<?xml version="1.0" standalone="no"?>
<!DOCTYPE svg PUBLIC "-//W3C//DTD SVG 1.1//EN" "http://www.w3.org/Graphics/SVG/1.1/DTD/svg11.dtd" >
<svg xmlns="http://www.w3.org/2000/svg" xmlns:xlink="http://www.w3.org/1999/xlink" version="1.1">
<metadata></metadata>
<defs>
<font id="rawengulkpcsregular" horiz-adv-x="365" >
<font-face units-per-em="2048" ascent="1609" descent="-439" />
<missing-glyph horiz-adv-x="731" />
<glyph horiz-adv-x="0" />
<glyph horiz-adv-x="682" />
<glyph unicode=" "  horiz-adv-x="731" />
<glyph unicode="&#x09;" horiz-adv-x="731" />
<glyph unicode="&#xa0;" horiz-adv-x="731" />
<glyph unicode="!" d="M119 46q0 26 19 45t45 19t45 -19t19 -45t-19 -45t-45 -19t-45 19t-19 45zM146 293v804h110v-73h-37v-731h-73z" />
<glyph unicode="&#x22;" horiz-adv-x="512" d="M91 1104l17 55q20 71 20 161q0 48 -5 68l71 13q7 -34 7 -81q0 -101 -22 -179l-16 -57zM293 1104l16 55q20 71 20 161q0 48 -5 68l71 13q7 -34 7 -81q0 -101 -22 -179l-16 -57z" />
<glyph unicode="#" horiz-adv-x="804" d="M60 293l8 73h144l20 219h-146l7 73h145l16 183h73l-16 -183h219l17 183h73l-17 -183h147l-8 -73h-144l-20 -219h146l-7 -73h-145l-16 -183h-73l16 183h-219l-17 -183h-73l17 183h-147zM285 366h220l20 219h-220z" />
<glyph unicode="$" horiz-adv-x="877" d="M73 196v60h73v-30q43 -38 114 -73t142 -43v366q-53 13 -88.5 24.5t-77.5 31t-67 42t-42 57t-17 77.5q0 84 87 142t205 65v109h73v-110q146 -15 246 -115l10 -10v-58h-73v27q-74 67 -183 82v-307q59 -15 97 -26.5t87 -33.5t77.5 -47t48.5 -65t20 -90q0 -99 -88 -163 t-242 -72v-109h-73v109q-95 8 -185 55.5t-134 93.5zM183 708q0 -61 55.5 -94.5t163.5 -61.5v290q-93 -6 -156 -47.5t-63 -86.5zM475 109q118 7 187 50.5t69 111.5q0 33 -14.5 60t-36 45t-58 34.5t-68 26t-79.5 21.5v-349z" />
<glyph unicode="%" horiz-adv-x="1097" d="M73 768q0 74 47 128.5t136 54.5t136 -54.5t47 -128.5q0 -31 -9.5 -61t-29 -58.5t-57 -46t-87.5 -17.5t-87.5 18t-57.5 46.5t-29 58.5t-9 60zM146 768q0 -40 24.5 -75t85.5 -35q33 0 56.5 11.5t34 30t15 35t4.5 33.5q0 44 -25.5 77t-84.5 33q-58 0 -84 -33t-26 -77z M155 97l704 805l55 -48l-704 -805zM658 183q0 74 47 128.5t136 54.5t136 -54.5t47 -128.5q0 -31 -9.5 -61t-29 -58.5t-57 -46t-87.5 -17.5t-87.5 18t-57.5 46.5t-29 58.5t-9 60zM731 183q0 -40 24.5 -75t85.5 -35q33 0 56.5 11.5t34 30t15 35t4.5 33.5q0 44 -25.5 77 t-84.5 33q-58 0 -84 -33t-26 -77z" />
<glyph unicode="&#x26;" horiz-adv-x="1060" d="M73 272q0 82 51 157t141 123q-46 76 -46 143q0 114 80.5 194t194.5 80q111 0 192.5 -69t81.5 -169v-36h-110v73h31q-16 54 -69.5 91t-125.5 37q-82 0 -141.5 -59t-59.5 -142q0 -56 36.5 -109t164.5 -191l241 -260q126 91 126 249q0 49 -26.5 87t-66.5 50v-27h-73v106h36 q84 0 143.5 -64t59.5 -152q0 -188 -146 -300q17 -11 37 -11h162v-73h-162q-57 0 -103 42q-116 -60 -241 -60q-101 0 -181 24.5t-128.5 66t-73.5 92.5t-25 107zM146 272q0 -39 18.5 -76t56 -69.5t105 -52t155.5 -19.5q101 0 188 42l-230 247q-82 86 -135 153 q-73 -38 -115.5 -99t-42.5 -126z" />
<glyph unicode="'" horiz-adv-x="292" d="M91 1104l17 55q20 71 20 161q0 48 -5 68l71 13q7 -34 7 -81q0 -101 -22 -179l-16 -57z" />
<glyph unicode="(" horiz-adv-x="512" d="M73 528v2q0 148 21 298.5t61 291t108.5 252t155.5 164.5l38 -62q-139 -84 -225 -353.5t-86 -590.5v-2q0 -314 84.5 -567t226.5 -338l-38 -62q-87 52 -155 156t-108.5 237t-61.5 278.5t-21 295.5z" />
<glyph unicode=")" horiz-adv-x="512" d="M55 -377q141 85 226 339t85 568q0 321 -86 590.5t-225 353.5l38 62q87 -53 155.5 -164.5t108.5 -252t61 -291t21 -298.5q0 -203 -35 -391.5t-115.5 -348.5t-195.5 -229z" />
<glyph unicode="*" horiz-adv-x="658" d="M73 967l26 68l194 -70v205h73v-205l194 70l25 -68l-197 -71l122 -168l-58 -44l-123 168l-122 -168l-59 44l123 168z" />
<glyph unicode="+" horiz-adv-x="804" d="M73 439v73h293v293h73v-293h292v-73h-292v-293h-73v293h-293z" />
<glyph unicode="," d="M82 -177q73 73 73 162q-19 5 -32 23t-13 38q0 26 19 45t45 19t45 -19t19 -45q0 -133 -123 -256z" />
<glyph unicode="-" horiz-adv-x="658" d="M73 512v73h512v-73h-512z" />
<glyph unicode="." d="M110 46q0 26 19 45t45 19t45 -19t19 -45t-19 -45t-45 -19t-45 19t-19 45z" />
<glyph unicode="/" horiz-adv-x="841" d="M37 -77l705 1103l63 -40l-706 -1103z" />
<glyph unicode="0" horiz-adv-x="877" d="M73 486q0 127 47 237.5t132 178t187 67.5q148 0 257 -139.5t109 -341.5q0 -134 -47.5 -250t-132 -186t-186.5 -70t-186.5 69.5t-132 185t-47.5 249.5zM146 486q0 -181 87.5 -306t205.5 -125q117 0 204.5 126t87.5 307q0 171 -87.5 289.5t-204.5 118.5 q-118 0 -205.5 -119.5t-87.5 -290.5z" />
<glyph unicode="1" horiz-adv-x="438" d="M64 773l157 178h72v-951h-74v839h-1v-2l-99 -111z" />
<glyph unicode="2" horiz-adv-x="768" d="M73 0v63l339 317q120 112 165 173.5t45 115.5q0 93 -67 160t-160 67q-97 0 -173 -69t-76 -158h-73q0 80 46.5 150t120.5 110t155 40q124 0 212 -88t88 -212q0 -80 -55.5 -154.5t-177.5 -188.5l-271 -253h431v18h73v-91h-622z" />
<glyph unicode="3" horiz-adv-x="768" d="M73 274h73q0 -90 69.5 -154.5t168.5 -64.5t168.5 64.5t69.5 154.5t-70 155t-168 65v73q77 0 131 48.5t54 115.5t-54 116t-131 49t-131 -49t-54 -116h-73q0 100 76.5 169t181.5 69t181.5 -69t76.5 -169q0 -67 -36.5 -119t-98.5 -80q85 -32 136.5 -100.5t51.5 -157.5 q0 -122 -91.5 -207t-219.5 -85t-219.5 85t-91.5 207z" />
<glyph unicode="4" horiz-adv-x="731" d="M37 146v66l6 9q164 247 225 409t61 321h73q0 -165 -59 -329.5t-214 -402.5h383v366h73v-366h73v-73h-73v-146h-73v146h-475z" />
<glyph unicode="5" horiz-adv-x="749" d="M73 152v9v29h73v-19q32 -52 94.5 -84t123.5 -32q42 0 82.5 16.5t76.5 50t58 92t22 133.5q0 73 -21.5 130t-56 90t-73 49.5t-77.5 16.5q-65 0 -136 -46t-91 -111l-8 -26l-67 7l34 512h515v-89h-73v16h-374l-20 -281q47 42 106.5 66.5t113.5 24.5t106 -22.5t96.5 -65 t72 -113t27.5 -158.5q0 -91 -28.5 -163.5t-75 -115t-100 -64.5t-109.5 -22q-81 0 -163 43t-123 118z" />
<glyph unicode="6" horiz-adv-x="768" d="M73 315q0 641 302 641q72 0 135.5 -32t104.5 -87l7 -9v-51h-73v26q-67 80 -174 80q-89 0 -148 -87t-81 -260q45 61 110.5 95.5t140.5 34.5q126 0 212 -104t86 -247t-86 -247.5t-212 -104.5q-135 0 -229.5 104t-94.5 248zM146 315q0 -115 74.5 -196.5t176.5 -81.5 q91 0 158 81t67 197t-67 196.5t-158 80.5q-102 0 -176.5 -81t-74.5 -196z" />
<glyph unicode="7" horiz-adv-x="694" d="M37 841v110h585v-62l-124 -168q-59 -81 -101.5 -178t-64 -194t-30.5 -181.5t-9 -167.5h-74q0 90 10 180t33 192t68.5 204t108.5 188l83 114h-412v-37h-73z" />
<glyph unicode="8" horiz-adv-x="768" d="M73 274q0 89 51.5 157.5t136.5 100.5q-62 28 -98.5 80t-36.5 119q0 100 76.5 169t181.5 69t181.5 -69t76.5 -169q0 -67 -36.5 -119t-98.5 -80q85 -32 136.5 -100.5t51.5 -157.5q0 -122 -91.5 -207t-219.5 -85t-219.5 85t-91.5 207zM146 274q0 -90 69.5 -154.5 t168.5 -64.5t168.5 64.5t69.5 154.5t-70 155t-168 65t-168 -65t-70 -155zM199 731q0 -67 54 -115.5t131 -48.5t131 48.5t54 115.5t-54 116t-131 49t-131 -49t-54 -116z" />
<glyph unicode="9" horiz-adv-x="768" d="M73 624q0 143 86 247t212 104q135 0 229.5 -103.5t94.5 -247.5q0 -642 -302 -642q-72 0 -135 32t-104 87l-8 9v51h73v-26q67 -80 174 -80q89 0 148 87t81 260q-45 -61 -110.5 -95.5t-140.5 -34.5q-126 0 -212 104.5t-86 247.5zM146 624q0 -116 67 -197t158 -81 q102 0 176.5 81.5t74.5 196.5t-74.5 196t-176.5 81q-91 0 -158 -80.5t-67 -196.5z" />
<glyph unicode=":" d="M110 46q0 26 19 45t45 19t45 -19t19 -45t-19 -45t-45 -19t-45 19t-19 45zM110 832q0 26 19 45t45 19t45 -19t19 -45t-19 -45t-45 -19t-45 19t-19 45z" />
<glyph unicode=";" d="M64 -159q69 69 91 144q-19 5 -32 23t-13 38q0 26 19 45t45 19t45 -19t19 -45q0 -133 -123 -256zM110 832q0 26 19 45t45 19t45 -19t19 -45t-19 -45t-45 -19t-45 19t-19 45z" />
<glyph unicode="&#x3c;" horiz-adv-x="658" d="M73 435v82l508 346l41 -62l-476 -322v-7l476 -337l-42 -60z" />
<glyph unicode="=" horiz-adv-x="804" d="M73 293v73h658v-73h-658zM73 585v73h658v-73h-658z" />
<glyph unicode="&#x3e;" horiz-adv-x="658" d="M37 135l475 337v7l-475 322l40 62l508 -346v-82l-506 -360z" />
<glyph unicode="?" horiz-adv-x="694" d="M73 825q0 112 80 192t193 80t194.5 -79.5t81.5 -192.5q0 -58 -19 -104.5t-47.5 -73.5t-61.5 -52t-61.5 -42.5t-47.5 -43.5t-19 -56v-160h-73v160q0 45 19 79.5t47.5 55.5t61.5 44.5t61.5 46t47.5 60t19 86.5q0 82 -60 140.5t-143 58.5t-141.5 -58.5t-58.5 -140.5h-73z M265 46q0 26 19 45t45 19t45 -19t19 -45t-19 -45t-45 -19t-45 19t-19 45z" />
<glyph unicode="@" horiz-adv-x="1243" d="M46 408q0 163 83 306.5t233.5 232t332.5 88.5q121 0 219 -41t158.5 -108.5t93 -150.5t32.5 -172q0 -102 -33.5 -186.5t-86 -136t-111.5 -79.5t-115 -28q-48 0 -79 15q-43 22 -56 62q-76 -84 -168 -84q-85 0 -153.5 67t-68.5 187q0 92 33 173t84 132t110 80.5t113 29.5 h216l-95 -491q-5 -19 -5 -44q0 -31 16 -42t53 -11q39 0 84 21t88.5 62t72 112.5t28.5 160.5q0 73 -26.5 142.5t-77.5 127.5t-135.5 93.5t-190.5 35.5q-122 0 -230.5 -46.5t-183.5 -123t-118.5 -177t-43.5 -207.5q0 -84 27 -158.5t79.5 -134.5t137 -95t191.5 -35 q146 0 282 68l33 -66q-154 -75 -315 -75q-120 0 -218 40.5t-160.5 109.5t-96 158t-33.5 188zM400 380q0 -89 46.5 -135t102.5 -46q40 0 87 30t73 82l8 13l78 398h-128q-41 0 -87 -24.5t-86.5 -67t-67 -109t-26.5 -141.5z" />
<glyph unicode="A" horiz-adv-x="1243" d="M55 0v73h29l529 1333h54l556 -1393l-67 -26l-152 379h-724l-145 -366h-80zM309 439h666l-335 836z" />
<glyph unicode="B" horiz-adv-x="1243" d="M110 1317v73h448q218 0 342 -88.5t124 -224.5q0 -90 -57 -168.5t-162 -122.5h-2v-2h2q169 -33 267 -147t98 -253q0 -77 -30 -145.5t-87 -122t-147 -85t-202 -31.5h-558v1317h-36zM219 73h485q190 0 291.5 90t101.5 221q0 62 -27.5 122.5t-77.5 111t-130 82t-176 31.5 h-467v-658zM219 805h339q97 0 175 25t124 65.5t70 87t24 94.5q0 99 -100.5 169.5t-292.5 70.5h-339v-512z" />
<glyph unicode="C" horiz-adv-x="1280" d="M73 695q0 145 56.5 277t152 227.5t227.5 152t277 56.5q223 0 404 -124l17 -11v-66h-73v25q-163 103 -348 103q-130 0 -248.5 -51t-204 -136.5t-136.5 -204t-51 -248.5t51 -248.5t136.5 -204t204 -136.5t248.5 -51q208 0 370 117l44 -59q-184 -131 -414 -131 q-145 0 -277 56.5t-227.5 152t-152 227.5t-56.5 277z" />
<glyph unicode="D" horiz-adv-x="1389" d="M110 1317v73h512q141 0 270 -55t222 -148t148 -222t55 -270t-55 -270t-148 -222t-222 -148t-270 -55h-476v1317h-36zM219 73h403q169 0 312 83t226 226.5t83 312.5t-83 312.5t-226 226.5t-312 83h-403v-1244z" />
<glyph unicode="E" horiz-adv-x="1170" d="M110 1317v73h914v-110h-73v37h-732v-586h439v-73h-439v-585h805v37h73v-110h-951v1317h-36z" />
<glyph unicode="F" horiz-adv-x="1170" d="M110 1317v73h987v-110h-73v37h-805v-586h512v-73h-512v-658h-73v1317h-36z" />
<glyph unicode="G" horiz-adv-x="1389" d="M73 695q0 145 56.5 277t152 227.5t227.5 152t277 56.5q259 0 457 -166v-72h-73v37q-173 128 -384 128q-130 0 -248.5 -51t-204 -136.5t-136.5 -204t-51 -248.5t51 -248.5t136.5 -204t204 -136.5t248.5 -51q132 0 250 50.5t207 141.5v338h-292v73h366v-658h-74v170 q-91 -81 -213.5 -134.5t-243.5 -53.5q-145 0 -277 56.5t-227.5 152t-152 227.5t-56.5 277z" />
<glyph unicode="H" horiz-adv-x="1316" d="M146 0v1390h73v-659h878v659h73v-1390h-73v658h-878v-658h-73z" />
<glyph unicode="I" d="M146 0v1390h73v-1390h-73z" />
<glyph unicode="J" horiz-adv-x="804" d="M37 106v40h73v-18q29 -42 88 -66.5t124 -24.5q108 0 185.5 68.5t77.5 187.5v1024h-439v73h512v-1097q0 -151 -99 -240.5t-237 -89.5q-84 0 -162 35.5t-118 98.5z" />
<glyph unicode="K" horiz-adv-x="1243" d="M146 0v1390h73v-896h4l761 896h113v-73h-78l-505 -593l497 -585q32 -38 63 -52t96 -14v-73q-82 0 -127.5 20.5t-87.5 70.5l-491 576l-245 -287v-380h-73z" />
<glyph unicode="L" horiz-adv-x="1170" d="M146 0v1390h73v-1317h805v37h73v-110h-951z" />
<glyph unicode="M" horiz-adv-x="1974" d="M110 0v73h22l162 1331h61l632 -1325l633 1325h60l185 -1400l-71 -9l-167 1252l-603 -1265h-71l-604 1263l-152 -1245h-87z" />
<glyph unicode="N" horiz-adv-x="1316" d="M110 1317v73h109l878 -1264v1264h73v-1390h-73l-878 1264v-1264h-73v1317h-36z" />
<glyph unicode="O" horiz-adv-x="1572" d="M73 695q0 145 56.5 277t152 227.5t227.5 152t277 56.5t277 -56.5t227.5 -152t152 -227.5t56.5 -277t-56.5 -277t-152 -227.5t-227.5 -152t-277 -56.5t-277 56.5t-227.5 152t-152 227.5t-56.5 277zM146 695q0 -130 51 -248.5t136.5 -204t204 -136.5t248.5 -51t248.5 51 t204 136.5t136.5 204t51 248.5t-51 248.5t-136.5 204t-204 136.5t-248.5 51t-248.5 -51t-204 -136.5t-136.5 -204t-51 -248.5z" />
<glyph unicode="P" horiz-adv-x="1243" d="M110 1317v73h585q197 0 336 -139.5t139 -336.5t-139 -336t-336 -139h-476v-439h-73v1317h-36zM219 512h476q166 0 284 118t118 284t-118 284.5t-284 118.5h-476v-805z" />
<glyph unicode="Q" horiz-adv-x="1572" d="M73 695q0 145 56.5 277t152 227.5t227.5 152t277 56.5t277 -56.5t227.5 -152t152 -227.5t56.5 -277t-56.5 -277t-152 -227.5t-227.5 -152t-277 -56.5h-2q-294 0 -438 -190l27 -30q74 70 196 70q77 0 183 -31t201 -61.5t146 -30.5q42 0 69.5 30.5t27.5 59.5h73 q0 -61 -49.5 -112t-120.5 -51q-59 0 -156.5 31t-199.5 61.5t-174 30.5q-110 0 -169 -74l-27 -34l-121 135l15 24q103 156 307 205q-221 68 -361 255.5t-140 424.5zM146 695q0 -130 51 -248.5t136.5 -204t204 -136.5t248.5 -51t248.5 51t204 136.5t136.5 204t51 248.5 t-51 248.5t-136.5 204t-204 136.5t-248.5 51t-248.5 -51t-204 -136.5t-136.5 -204t-51 -248.5z" />
<glyph unicode="R" horiz-adv-x="1243" d="M110 1317v73h521q112 0 202.5 -34t147 -91.5t86.5 -128.5t30 -149q0 -76 -30 -144.5t-86 -122t-145 -85t-200 -32.5h-1v-1h1q65 -31 125 -125l212 -333q28 -44 50.5 -57.5t62.5 -13.5h84v-73h-84q-57 0 -97 22.5t-78 83.5l-212 331q-25 39 -40 60.5t-36 40.5t-36 26.5 t-45.5 13t-58.5 6.5t-81 1h-183v-585h-73v1317h-36zM219 658h412q96 0 173 28t124 75.5t71.5 105t24.5 120.5t-24.5 120.5t-71.5 105t-124 76t-173 28.5h-412v-659z" />
<glyph unicode="S" horiz-adv-x="1243" d="M73 199v68h73v-37q74 -64 208 -119.5t268 -55.5q227 0 351 79.5t124 187.5q0 40 -12.5 76t-33 65t-55.5 56.5t-69 48.5t-86.5 44.5t-96 40.5t-106.5 40q-195 71 -268 108q-192 98 -219 235q-5 24 -5 50q0 142 136.5 232t339.5 90q116 0 245 -42.5t219 -129.5l11 -11v-68 h-73v37q-75 67 -185.5 104t-216.5 37q-170 0 -286.5 -70t-116.5 -179q0 -33 11.5 -62.5t29.5 -53.5t52 -48t65.5 -42t84 -40.5t94.5 -38.5t108 -40q51 -18 77 -28t76 -30t78 -34.5t70.5 -38.5t67.5 -45.5t54.5 -51.5t45 -61t26.5 -69.5t11 -80.5q0 -149 -150 -244.5 t-398 -95.5q-158 0 -310.5 66.5t-227.5 139.5z" />
<glyph unicode="T" horiz-adv-x="1243" d="M73 1280v110h1097v-110h-73v37h-439v-1317h-73v1317h-439v-37h-73z" />
<glyph unicode="U" horiz-adv-x="1316" d="M110 1317v73h109v-896q0 -118 59 -219.5t160.5 -160.5t219.5 -59t219.5 59t160.5 160.5t59 219.5v896h73v-896q0 -212 -150 -362t-362 -150t-362 150t-150 362v823h-36z" />
<glyph unicode="V" horiz-adv-x="1243" d="M37 1317v73h80l505 -1275l515 1288l68 -26l-556 -1393h-55l-528 1333h-29z" />
<glyph unicode="W" horiz-adv-x="1974" d="M55 1317v73h80l468 -1269l348 921v201h73v-201l342 -921l477 1282l70 -26l-520 -1393h-54l-352 947l-356 -947h-55l-492 1333h-29z" />
<glyph unicode="X" horiz-adv-x="1243" d="M48 26l528 693l-496 649l59 44l483 -633l479 629l58 -44l-492 -645l529 -693l-59 -44l-515 676l-516 -676z" />
<glyph unicode="Y" horiz-adv-x="1243" d="M55 1317v73h75l490 -807h4l493 821l64 -36l-523 -869v-499h-73v499l-495 818h-35z" />
<glyph unicode="Z" horiz-adv-x="1170" d="M73 0v48l880 1267h2v2h-772v-37h-73v110h951v-48l-880 -1267h-2v-2h845v37h73v-110h-1024z" />
<glyph unicode="[" horiz-adv-x="438" d="M146 -219v1389h220v-73h-147v-1243h147v-73h-220z" />
<glyph unicode="\" horiz-adv-x="914" d="M49 1062l63 41l755 -1180l-62 -40z" />
<glyph unicode="]" horiz-adv-x="438" d="M73 -146h146v1243h-146v73h220v-1389h-220v73z" />
<glyph unicode="^" horiz-adv-x="804" d="M49 768l337 421q8 11 22 11t22 -11l323 -423l-44 -33l-301 393l-317 -395z" />
<glyph unicode="_" horiz-adv-x="1444" d="M73 -329h1244v-55h-1244v55z" />
<glyph unicode="`" horiz-adv-x="438" d="M55 1333l77 75l252 -254l-48 -57z" />
<glyph unicode="a" horiz-adv-x="950" d="M37 0v73h27l386 896h51l410 -954l-66 -30l-101 234h-537l-94 -219h-76zM238 293h475l-238 552z" />
<glyph unicode="b" horiz-adv-x="950" d="M110 878v73h371q113 0 200 -64t87 -156q0 -109 -143 -171v-4q115 -27 184 -109.5t69 -177.5q0 -110 -87 -189.5t-204 -79.5h-441v878h-36zM219 73h368q89 0 153.5 59t64.5 137q0 40 -19 82t-53 78.5t-87 59.5t-114 23h-313v-439zM219 585h225q113 0 182 40t69 106 q0 56 -62 101.5t-152 45.5h-262v-293z" />
<glyph unicode="c" horiz-adv-x="987" d="M73 475q0 134 66.5 247.5t180 180t247.5 66.5q189 0 334 -132l13 -10v-59h-73v26q-120 102 -274 102q-174 0 -297.5 -123.5t-123.5 -297.5t123.5 -297t297.5 -123q89 0 168.5 35t138.5 98l55 -51q-69 -74 -162.5 -114.5t-199.5 -40.5q-134 0 -247.5 66t-180 179.5 t-66.5 247.5z" />
<glyph unicode="d" horiz-adv-x="1024" d="M110 878v73h338q208 0 355.5 -139.5t147.5 -336.5q0 -129 -67.5 -238.5t-183 -173t-252.5 -63.5h-302v878h-36zM219 73h233q177 0 301.5 117.5t124.5 284.5t-124.5 285t-301.5 118h-233v-805z" />
<glyph unicode="e" horiz-adv-x="877" d="M110 878v73h621v-110h-73v37h-439v-366h366v-73h-366v-366h512v37h74v-110h-659v878h-36z" />
<glyph unicode="f" horiz-adv-x="877" d="M110 878v73h695v-110h-74v37h-512v-366h366v-73h-366v-439h-73v878h-36z" />
<glyph unicode="g" horiz-adv-x="1024" d="M73 475q0 134 66.5 247.5t180.5 180t247 66.5q189 0 334 -132l13 -10v-59h-73v26q-120 102 -274 102q-174 0 -297.5 -123t-123.5 -298t122.5 -297.5t298.5 -122.5q82 0 173 48.5t138 110.5v152h-192v73h265v-439h-62l-9 137h-2q-60 -65 -143.5 -110t-167.5 -45 q-134 0 -247.5 66t-180 179.5t-66.5 247.5z" />
<glyph unicode="h" horiz-adv-x="1024" d="M146 0v951h73v-439h586v439h73v-951h-73v439h-586v-439h-73z" />
<glyph unicode="i" d="M146 0v951h73v-951h-73z" />
<glyph unicode="j" horiz-adv-x="658" d="M73 44v66h73v-28q50 -27 110 -27q73 0 128 45.5t55 122.5v655h-329v73h402v-728q0 -110 -77 -175.5t-179 -65.5q-94 0 -168 51z" />
<glyph unicode="k" horiz-adv-x="950" d="M146 0v951h73v-587l505 587h81v-73h-46l-309 -357l325 -397q27 -34 41 -42.5t36 -8.5h26v-73h-26q-41 0 -68 16t-64 61l-318 387l-181 -210h-2v-254h-73z" />
<glyph unicode="l" horiz-adv-x="877" d="M146 0v951h73v-878h512v37h74v-110h-659z" />
<glyph unicode="m" horiz-adv-x="1389" d="M55 0v73h27l115 896h57l441 -894l441 894h56l125 -965l-74 -11l-106 817l-407 -828h-70l-408 828l-106 -810h-91z" />
<glyph unicode="n" horiz-adv-x="1024" d="M110 878v73h122l573 -841v841h73v-969h-75l-584 859v-841h-73v878h-36z" />
<glyph unicode="o" horiz-adv-x="1097" d="M73 475q0 133 63.5 247t173.5 180.5t239 66.5t238.5 -66.5t173 -180.5t63.5 -247t-63.5 -246.5t-173 -180t-238.5 -66.5q-197 0 -336.5 145t-139.5 348zM146 475q0 -175 119 -297.5t284 -122.5t283.5 122.5t118.5 297.5t-118.5 298t-283.5 123t-284 -123t-119 -298z" />
<glyph unicode="p" horiz-adv-x="950" d="M110 878v73h420q145 0 246.5 -95.5t101.5 -233.5t-98 -233.5t-239 -95.5h-322v-293h-73v878h-36zM219 366h309q114 0 195.5 75.5t81.5 182.5t-81 180.5t-196 73.5h-309v-512z" />
<glyph unicode="q" horiz-adv-x="1097" d="M73 475q0 206 136.5 350t339.5 144t339 -144t136 -350q0 -202 -130 -344t-327 -149q-110 0 -191 -55.5t-127 -136.5q77 42 159 42q63 0 127 -19t107 -42.5t93.5 -42.5t91.5 -19q42 0 69 30.5t27 59.5h74q0 -61 -49.5 -112t-120.5 -51q-49 0 -104.5 19t-98 42.5 t-101.5 42.5t-115 19t-114 -29t-69 -68l-7 -28h-81v37q0 83 66.5 184.5t176.5 155.5q-139 52 -223 178.5t-84 285.5zM146 475q0 -176 115.5 -298t287.5 -122t287 122t115 298t-115 298.5t-287 122.5t-287.5 -122.5t-115.5 -298.5z" />
<glyph unicode="r" horiz-adv-x="950" d="M110 878v73h347q85 0 153 -23.5t109.5 -63.5t63.5 -89.5t22 -103.5q0 -98 -67 -178t-189 -107q29 -20 76 -79l150 -183q28 -32 41.5 -41.5t35.5 -9.5h26v-73h-26q-40 0 -67.5 16.5t-64.5 60.5l-149 183q-6 7 -20 24.5t-18 21.5t-14.5 16.5t-15 14.5t-14 9.5t-17 8.5 t-19 5t-24 4t-28 1t-35.5 1h-147v-366h-73v878h-36zM219 439h236q127 0 201.5 69.5t74.5 160.5q0 87 -70.5 148t-203.5 61h-238v-439z" />
<glyph unicode="s" horiz-adv-x="950" d="M73 146v55h73v-29q40 -47 120.5 -82t208.5 -35q160 0 245 53.5t85 120.5q0 54 -36.5 95t-94.5 67.5t-128 49.5t-140.5 48.5t-128.5 56t-94.5 80t-36.5 113.5q0 90 100.5 160t228.5 70q199 0 319 -117l11 -11v-55h-74v24q-99 86 -256 86q-105 0 -180.5 -52.5t-75.5 -104.5 q0 -49 36.5 -87t94.5 -63t128 -47.5t140.5 -49t128.5 -59t94.5 -84.5t36.5 -120q0 -109 -111 -178t-292 -69q-143 0 -243 44t-152 111z" />
<glyph unicode="t" horiz-adv-x="950" d="M73 841v110h805v-110h-73v37h-293v-878h-73v878h-293v-37h-73z" />
<glyph unicode="u" horiz-adv-x="1024" d="M110 878v73h109v-604q0 -121 86 -206.5t207 -85.5t207 85.5t86 206.5v604h73v-604q0 -151 -107.5 -258t-258.5 -107t-258.5 107t-107.5 258v531h-36z" />
<glyph unicode="v" horiz-adv-x="950" d="M37 878v73h75l363 -845l370 859l66 -29l-410 -954h-51l-384 896h-29z" />
<glyph unicode="w" horiz-adv-x="1389" d="M55 878v73h78l306 -828l219 630v161h73v-161l220 -630l311 841l69 -26l-353 -954h-55l-228 652l-229 -652h-55l-331 894h-25z" />
<glyph unicode="x" horiz-adv-x="950" d="M44 24l384 473l-305 381h-32v73h66l318 -395l337 419l58 -48l-347 -430l384 -473l-59 -48l-373 465l-373 -465z" />
<glyph unicode="y" horiz-adv-x="950" d="M55 878v73h84l336 -534l353 561l63 -40l-379 -600v-338h-73v338l-340 540h-44z" />
<glyph unicode="z" horiz-adv-x="877" d="M55 0v42l622 836h-512v-37h-74v110h695v-48l-618 -830h563v37h74v-110h-750z" />
<glyph unicode="{" horiz-adv-x="438" d="M0 494v109h37q14 0 30 6t35 20.5t31.5 46t12.5 74.5v530q0 80 18.5 133.5t52.5 78.5t69 34.5t80 9.5v-73q-36 0 -59.5 -6t-45 -24t-32 -56t-10.5 -97v-530q0 -147 -109 -201q47 -23 78 -73.5t31 -128.5v-530q0 -59 10.5 -97t32 -56t45 -24t59.5 -6v-73q-45 0 -80 9.5 t-69 34.5t-52.5 78.5t-18.5 133.5v530q0 43 -12.5 74.5t-31.5 46t-35 20.5t-30 6h-37z" />
<glyph unicode="|" d="M146 -366v1683h73v-1683h-73z" />
<glyph unicode="}" horiz-adv-x="438" d="M73 -366q36 0 59 6t44.5 24t32 56t10.5 97v530q0 78 31.5 128.5t78.5 73.5q-110 54 -110 201v530q0 59 -10.5 97t-32 56t-44.5 24t-59 6v73q45 0 80 -9.5t69 -34.5t52.5 -78.5t18.5 -133.5v-530q0 -43 12.5 -74.5t31.5 -46t35 -20.5t30 -6h37v-109h-37q-14 0 -30 -6 t-35 -20.5t-31.5 -46t-12.5 -74.5v-530q0 -80 -18.5 -133.5t-52.5 -78.5t-69 -34.5t-80 -9.5v73z" />
<glyph unicode="~" horiz-adv-x="731" d="M62 658q11 65 51 98.5t95 33.5q45 0 88 -22l172 -80q30 -15 57 -15q9 0 16.5 1.5t13 4t11 7t9 8t6.5 9t5 9.5t4 10t2.5 8.5t2 7.5t1.5 6l73 -13q-11 -61 -49 -96t-95 -35q-47 0 -90 22l-172 80q-30 15 -55 15q-27 0 -44.5 -15.5t-21 -26.5t-7.5 -28z" />
<glyph unicode="&#xa1;" d="M110 -73h36v731h73v-804h-109v73zM119 905q0 26 19 45t45 19t45 -19t19 -45t-19 -45t-45 -19t-45 19t-19 45z" />
<glyph unicode="&#xa2;" horiz-adv-x="914" d="M73 475q0 175 115.5 304.5t286.5 149.5v95h74v-91q155 -6 279 -112l13 -11v-79h-73v44q-101 78 -219 84v-768q154 6 263 121l53 -49q-131 -139 -316 -145v-91h-74v95q-171 20 -286.5 149t-115.5 304zM146 475q0 -145 94 -252.5t235 -127.5v761q-141 -20 -235 -128 t-94 -253z" />
<glyph unicode="&#xa3;" horiz-adv-x="877" d="M18 37l37 36q66 0 115 46.5t49 112.5v207h-109v73h109v229q0 96 68.5 162t164.5 66q64 0 117.5 -30.5t83.5 -82.5l5 -9v-42h-73v22q-48 69 -133 69q-65 0 -112 -43.5t-47 -111.5v-229h182v-73h-182v-207q0 -95 -64 -159h502v37h74v-110h-750z" />
<glyph unicode="&#xa4;" horiz-adv-x="658" d="M42 726l55 47l86 -84q63 48 152 48q88 0 159 -55l87 90l50 -55l-86 -86q51 -68 51 -156q0 -89 -47 -151l80 -83l-55 -47l-77 77q-74 -57 -162 -57t-156 51l-82 -80l-48 55l79 76q-55 71 -55 159q0 89 57 163zM146 475q0 -78 55 -133t134 -55q78 0 133 55t55 133 q0 79 -55 134t-133 55q-79 0 -134 -55t-55 -134z" />
<glyph unicode="&#xa5;" horiz-adv-x="950" d="M55 878v73h84l336 -534l353 561l63 -40l-362 -572h166v-73h-183v-293h-73v293h-183v73h166l-323 512h-44z" />
<glyph unicode="&#xa6;" d="M146 293h73v-732h-73v732zM146 658v732h73v-732h-73z" />
<glyph unicode="&#xa7;" horiz-adv-x="914" d="M69 561q0 77 45 138t115 84q-50 60 -50 142q0 101 81 173t195 72t195 -80.5t81 -193.5h-73q0 83 -59.5 142t-143.5 59t-143.5 -50.5t-59.5 -121.5q0 -53 32.5 -92.5t84.5 -65.5t114.5 -49t125.5 -50t115 -61t84.5 -89.5t32.5 -128.5q0 -77 -45 -137.5t-115 -83.5 q50 -60 50 -142q0 -101 -81 -173t-195 -72t-195 80.5t-81 193.5h73q0 -83 59.5 -142t143.5 -59t143.5 50.5t59.5 121.5q0 53 -32.5 92.5t-84.5 65.5t-115 49t-125.5 49.5t-114.5 60.5t-84.5 89.5t-32.5 128.5zM143 561q0 -59 31 -103.5t85 -73.5t111 -51t126.5 -49.5 t113.5 -55.5q66 6 112 52t46 109q0 59 -31 103.5t-85 74t-111 51t-126.5 49.5t-113.5 56q-66 -6 -112 -52.5t-46 -109.5z" />
<glyph unicode="&#xa8;" horiz-adv-x="731" d="M91 1216q0 26 19 45t45 19t45 -19t19 -45t-19 -45t-45 -19t-45 19t-19 45zM521 1216q0 26 19 45t45 19t45 -19t19 -45t-19 -45t-45 -19t-45 19t-19 45z" />
<glyph unicode="&#xa9;" horiz-adv-x="1682" d="M64 699q0 195 102 352q104 166 282 262q189 99 393 99t393 -99q178 -96 282 -262q102 -157 102 -352q0 -196 -102 -353q-104 -166 -282 -262q-181 -95 -393 -95t-393 95q-178 96 -282 262q-102 157 -102 353zM137 699q0 -173 92 -315q94 -150 254 -236q159 -86 358 -86 q202 0 359 86q160 86 254 236q91 141 91 315q0 173 -91 314q-94 150 -254 236q-164 90 -359 90q-194 0 -358 -90q-160 -86 -254 -236q-92 -142 -92 -314zM402 695q0 189 134 323t323 134q166 0 298 -112l13 -10v-79h-73v44q-107 84 -238 84q-159 0 -271.5 -112.5 t-112.5 -271.5t112.5 -271.5t271.5 -112.5q169 0 283 121l53 -50q-137 -144 -336 -144q-189 0 -323 134t-134 323z" />
<glyph unicode="&#xaa;" horiz-adv-x="804" d="M73 869q0 98 85.5 163t229.5 65h270v73q0 183 -219 183q-134 0 -220 -53v-20h-73v57l15 11q45 36 122.5 57t155.5 21q127 0 209.5 -62t82.5 -194v-439h19v-73h-92v57q-106 -93 -270 -93q-138 0 -226.5 68.5t-88.5 178.5zM146 869q0 -82 69 -128t173 -46q87 0 162.5 36.5 t107.5 98.5v194h-270q-117 0 -179.5 -45.5t-62.5 -109.5z" />
<glyph unicode="&#xab;" horiz-adv-x="731" d="M55 446v59l254 311l57 -48l-238 -291v-5l238 -287l-57 -46zM347 446v59l255 311l56 -48l-237 -291v-5l237 -287l-56 -46z" />
<glyph unicode="&#xac;" horiz-adv-x="1097" d="M73 658v73h878v-512h-73v439h-805z" />
<glyph unicode="&#xad;" horiz-adv-x="658" d="M73 512v73h512v-73h-512z" />
<glyph unicode="&#xae;" horiz-adv-x="1682" d="M64 699q0 195 102 352q104 166 282 262q189 99 393 99t393 -99q178 -96 282 -262q102 -157 102 -352q0 -196 -102 -353q-104 -166 -282 -262q-181 -95 -393 -95t-393 95q-178 96 -282 262q-102 157 -102 353zM137 699q0 -173 92 -315q94 -150 254 -236q159 -86 358 -86 q202 0 359 86q160 86 254 236q91 141 91 315q0 173 -91 314q-94 150 -254 236q-164 90 -359 90q-194 0 -358 -90q-160 -86 -254 -236q-92 -142 -92 -314zM585 274v878h306q138 0 216 -75.5t78 -180.5q0 -94 -66.5 -159.5t-187.5 -76.5q30 -30 49 -62l135 -214 q16 -23 25.5 -30t29.5 -7h51v-73h-51q-73 0 -117 70l-133 214q-36 59 -60.5 70.5t-106.5 11.5h-95v-366h-73zM658 713h233q106 0 163.5 54.5t57.5 128.5t-57 128.5t-164 54.5h-233v-366z" />
<glyph unicode="&#xaf;" horiz-adv-x="731" d="M73 1243v74h585v-74h-585z" />
<glyph unicode="&#xb0;" horiz-adv-x="512" d="M73 1207q0 73 56.5 128t126.5 55t126.5 -55t56.5 -128t-56.5 -128t-126.5 -55t-126.5 55t-56.5 128zM146 1207q0 -43 35 -76.5t75 -33.5t75 33.5t35 76.5t-35 76.5t-75 33.5t-75 -33.5t-35 -76.5z" />
<glyph unicode="&#xb1;" horiz-adv-x="804" d="M73 146v73h658v-73h-658zM73 658v73h293v293h73v-293h292v-73h-292v-292h-73v292h-293z" />
<glyph unicode="&#xb2;" horiz-adv-x="658" d="M73 878v62l285 262q87 80 120.5 135t33.5 106v2q0 76 -53.5 129.5t-129.5 53.5t-129.5 -53.5t-53.5 -129.5h-73q0 106 75 181t181 75t181 -75t75 -181v-2q0 -70 -41.5 -140t-135.5 -156l-214 -196h318v33h73v-106h-512z" />
<glyph unicode="&#xb3;" horiz-adv-x="658" d="M73 1110h73q0 -73 53.5 -125t129.5 -52t129.5 52t53.5 125t-53.5 125.5t-129.5 52.5v73q58 0 98.5 39t40.5 94t-40.5 94.5t-98.5 39.5t-98.5 -39.5t-40.5 -94.5h-73q0 86 62 146.5t150 60.5t150 -60.5t62 -146.5q0 -51 -29 -95t-77 -71v-2q68 -29 109 -87t41 -129 q0 -104 -75 -177t-181 -73t-181 73t-75 177z" />
<glyph unicode="&#xb4;" horiz-adv-x="438" d="M69 1167l203 204l53 -51l-204 -205z" />
<glyph unicode="&#xb6;" horiz-adv-x="877" d="M73 878q0 120 86 206t207 86h365v-1389h-73v1316h-219v-1316h-73v804q-121 0 -207 86t-86 207zM146 878q0 -92 64 -156t156 -64v439q-92 0 -156 -64t-64 -155z" />
<glyph unicode="&#xb7;" d="M146 439v91h110v-91h-110z" />
<glyph unicode="&#xb8;" horiz-adv-x="822" d="M208 -313l48 28q35 -59 113 -59q51 0 78.5 32.5t27.5 77.5t-26 79t-72 34q-31 0 -86 -25l-46 13l46 159l53 -15l-24 -84q25 7 57 7q79 0 125.5 -52.5t46.5 -122.5q0 -74 -55 -116t-125 -42q-50 0 -93.5 22.5t-67.5 63.5z" />
<glyph unicode="&#xb9;" d="M57 1571l98 111h64v-804h-73v684l-34 -39z" />
<glyph unicode="&#xba;" horiz-adv-x="950" d="M73 1024q0 166 118 284t284 118t284.5 -118t118.5 -284t-118.5 -284t-284.5 -118t-284 118t-118 284zM146 1024q0 -136 96.5 -232.5t232.5 -96.5t233 96.5t97 232.5t-97 232.5t-233 96.5t-232.5 -96.5t-96.5 -232.5z" />
<glyph unicode="&#xbb;" horiz-adv-x="731" d="M73 183l238 291v5l-238 287l57 46l254 -307v-59l-254 -311zM366 183l237 291v5l-237 287l56 46l255 -307v-59l-255 -311z" />
<glyph unicode="&#xbc;" horiz-adv-x="1316" d="M9 97l1024 1170l55 -47l-1024 -1171zM57 1278l98 112h64v-805h-73v684l-34 -38zM695 73v60l5 10q152 231 208 351t56 237h73q0 -129 -54.5 -253.5t-190.5 -331.5h305v293h73v-293h73v-73h-73v-146h-73v146h-402z" />
<glyph unicode="&#xbd;" horiz-adv-x="1316" d="M9 97l1024 1170l55 -47l-1024 -1171zM57 1278l98 112h64v-805h-73v684l-34 -38zM731 -11l286 262q87 80 120 135t33 106v2q0 76 -53.5 129.5t-129.5 53.5t-129 -53.5t-53 -129.5h-74q0 106 75 181t181 75t181 -75t75 -181v-2q0 -70 -41.5 -140t-135.5 -156l-214 -196h318 v33h73v-106h-512v62z" />
<glyph unicode="&#xbe;" horiz-adv-x="1536" d="M73 817h73q0 -73 53.5 -125t129.5 -52t129.5 52t53.5 125t-53.5 125.5t-129.5 52.5v73q58 0 98.5 39t40.5 94t-40.5 94.5t-98.5 39.5t-98.5 -39.5t-40.5 -94.5h-73q0 86 62 146.5t150 60.5t150 -60.5t62 -146.5q0 -51 -29 -95t-77 -71v-2q68 -29 109 -87t41 -129 q0 -104 -75 -177t-181 -73t-181 73t-75 177zM229 97l1024 1170l54 -47l-1024 -1171zM914 73v60l6 10q152 230 207.5 350.5t55.5 237.5h73q0 -129 -54.5 -253.5t-190.5 -331.5h306v293h73v-293h73v-73h-73v-146h-73v146h-403z" />
<glyph unicode="&#xbf;" horiz-adv-x="694" d="M73 126q0 58 19 104.5t47.5 73t61.5 51.5t61.5 42.5t47.5 43.5t19 56v161h73v-161q0 -39 -14 -69.5t-36.5 -51.5t-50 -39.5t-55 -37.5t-50 -41.5t-36.5 -56t-14 -75.5q0 -82 60 -140.5t143 -58.5t141.5 58.5t58.5 140.5h73q0 -112 -80 -192t-193 -80t-194.5 79.5 t-81.5 192.5zM302 905q0 26 19 45t45 19t45 -19t19 -45t-19 -45t-45 -19t-45 19t-19 45z" />
<glyph unicode="&#xc0;" horiz-adv-x="1243" d="M55 0v73h29l530 1351h52l557 -1409l-67 -30l-150 381h-728l-143 -366h-80zM307 439h669l-334 850h-2zM481 1759l53 51l203 -205l-53 -51z" />
<glyph unicode="&#xc1;" horiz-adv-x="1243" d="M55 0v73h29l530 1351h52l557 -1409l-67 -30l-150 381h-728l-143 -366h-80zM307 439h669l-334 850h-2zM545 1605l203 205l53 -51l-205 -205z" />
<glyph unicode="&#xc2;" horiz-adv-x="1243" d="M55 0v73h29l530 1351h52l557 -1409l-67 -30l-150 381h-728l-143 -366h-80zM307 439h669l-334 850h-2zM338 1593l273 217h58l273 -217l-46 -57l-252 201h-8l-252 -201z" />
<glyph unicode="&#xc3;" horiz-adv-x="1243" d="M55 0v73h29l530 1351h52l557 -1409l-67 -30l-150 381h-728l-143 -366h-80zM307 439h669l-334 850h-2zM364 1633l9 49q11 62 48 92.5t87 30.5q52 0 88 -20l113 -62q38 -19 63 -19q52 0 62 64l11 50l71 -13l-9 -50q-11 -62 -48 -92t-87 -30q-52 0 -88 20l-113 62 q-36 18 -63 18q-52 0 -62 -64l-11 -49z" />
<glyph unicode="&#xc4;" horiz-adv-x="1243" d="M55 0v73h29l530 1351h52l557 -1409l-67 -30l-150 381h-728l-143 -366h-80zM307 439h669l-334 850h-2zM366 1655q0 26 19 45t45 19t45 -19t19 -45t-19 -45t-45 -19t-45 19t-19 45zM795 1655q0 26 19 45t45 19t45 -19t19 -45t-19 -45t-45 -19t-45 19t-19 45z" />
<glyph unicode="&#xc5;" horiz-adv-x="1243" d="M55 0v73h29l530 1351h52l557 -1409l-67 -30l-150 381h-728l-143 -366h-80zM307 439h669l-334 850h-2zM457 1646q0 71 59 128q56 55 124 55t124 -55q59 -57 59 -128t-59 -128q-56 -55 -124 -55q-65 0 -124 57t-59 126zM512 1646q0 -48 40 -88t88 -40q45 0 88 40 q40 40 40 88q0 47 -40 87q-44 41 -88 41t-88 -41q-40 -40 -40 -87z" />
<glyph unicode="&#xc6;" horiz-adv-x="1755" d="M37 0v73h14l660 1317h898v-110h-73v37h-603v-586h310v-73h-310v-585h676v37h73v-110h-823v366h-579l-185 -366h-58zM316 439h543v878h-102z" />
<glyph unicode="&#xc7;" horiz-adv-x="1280" d="M73 695q0 145 56.5 277t152 227.5t227.5 152t277 56.5q223 0 404 -124l17 -11v-66h-73v25q-163 103 -348 103q-130 0 -248.5 -51t-204 -136.5t-136.5 -204t-51 -248.5t51 -248.5t136.5 -204t204 -136.5t248.5 -51q208 0 370 117l44 -59q-184 -131 -414 -131 q-145 0 -277 56.5t-227.5 152t-152 227.5t-56.5 277zM530 -342l48 28q35 -59 113 -59q51 0 78.5 32.5t27.5 77.5t-26 79t-72 34q-31 0 -86 -25l-46 13l46 159l53 -15l-24 -84q25 7 57 7q79 0 125.5 -52.5t46.5 -122.5q0 -74 -55 -116t-125 -42q-50 0 -93.5 22.5t-67.5 63.5z " />
<glyph unicode="&#xc8;" horiz-adv-x="1170" d="M110 1317v73h914v-110h-73v37h-732v-586h439v-73h-439v-585h805v37h73v-110h-951v1317h-36zM426 1759l53 51l203 -204l-53 -52z" />
<glyph unicode="&#xc9;" horiz-adv-x="1170" d="M110 1317v73h914v-110h-73v37h-732v-586h439v-73h-439v-585h805v37h73v-110h-951v1317h-36zM490 1606l203 204l53 -51l-205 -205z" />
<glyph unicode="&#xca;" horiz-adv-x="1170" d="M110 1317v73h914v-110h-73v37h-732v-586h439v-73h-439v-585h805v37h73v-110h-951v1317h-36zM283 1593l272 217h59l272 -217l-45 -57l-253 201h-7l-252 -201z" />
<glyph unicode="&#xcb;" horiz-adv-x="1170" d="M110 1317v73h914v-110h-73v37h-732v-586h439v-73h-439v-585h805v37h73v-110h-951v1317h-36zM311 1655q0 26 19 45t45 19t45 -19t19 -45t-19 -45t-45 -19t-45 19t-19 45zM741 1655q0 26 19 45t45 19t45 -19t19 -45t-19 -45t-45 -19t-45 19t-19 45z" />
<glyph unicode="&#xcc;" d="M24 1759l53 51l203 -205l-53 -51zM146 0v1390h73v-1390h-73z" />
<glyph unicode="&#xcd;" d="M88 1605l203 205l53 -51l-205 -205zM146 0v1390h73v-1390h-73z" />
<glyph unicode="&#xce;" d="M-119 1593l273 217h58l273 -217l-46 -57l-252 201h-8l-252 -201zM146 0v1390h73v-1390h-73z" />
<glyph unicode="&#xcf;" d="M-18 1655q0 26 19 45t45 19t45 -19t19 -45t-19 -45t-45 -19t-45 19t-19 45zM146 0v1390h73v-1390h-73zM265 1655q0 26 19 45t45 19t45 -19t19 -45t-19 -45t-45 -19t-45 19t-19 45z" />
<glyph unicode="&#xd0;" horiz-adv-x="1389" d="M73 658v73h73v586h-36v73h36h39h437q141 0 270 -55t222 -148t148 -222t55 -270t-55 -270t-148 -222t-222 -148t-270 -55h-476v658h-73zM219 73h403q169 0 312 83t226 226.5t83 312.5t-83 312.5t-226 226.5t-312 83h-403v-586h366v-73h-366v-585z" />
<glyph unicode="&#xd1;" horiz-adv-x="1316" d="M110 1317v73h109l878 -1264v1264h73v-1390h-73l-878 1264v-1264h-73v1317h-36zM419 1633l9 49q11 62 48 92.5t87 30.5q52 0 88 -20l113 -62q38 -19 63 -19q52 0 62 64l11 50l71 -13l-9 -50q-11 -62 -48 -92t-87 -30q-52 0 -88 20l-114 62q-36 18 -62 18q-52 0 -62 -64 l-11 -49z" />
<glyph unicode="&#xd2;" horiz-adv-x="1609" d="M73 695q0 199 98 367t266.5 266t367.5 98t367 -98t266 -266t98 -367t-98 -367.5t-266 -266.5t-367 -98q-149 0 -284.5 58t-233.5 156t-156 233.5t-58 284.5zM146 695q0 -134 52 -256t140.5 -210t210.5 -140t256 -52q179 0 330.5 88t239.5 239.5t88 330.5t-88 330.5 t-239.5 239.5t-330.5 88q-134 0 -256 -52t-210.5 -140t-140.5 -210t-52 -256zM645 1759l54 51l202 -205l-53 -51z" />
<glyph unicode="&#xd3;" horiz-adv-x="1572" d="M73 695q0 145 56.5 277t152 227.5t227.5 152t277 56.5t277 -56.5t227.5 -152t152 -227.5t56.5 -277t-56.5 -277t-152 -227.5t-227.5 -152t-277 -56.5t-277 56.5t-227.5 152t-152 227.5t-56.5 277zM146 695q0 -130 51 -248.5t136.5 -204t204 -136.5t248.5 -51t248.5 51 t204 136.5t136.5 204t51 248.5t-51 248.5t-136.5 204t-204 136.5t-248.5 51t-248.5 -51t-204 -136.5t-136.5 -204t-51 -248.5zM692 1606l203 204l53 -51l-205 -205z" />
<glyph unicode="&#xd4;" horiz-adv-x="1609" d="M73 695q0 199 98 367t266.5 266t367.5 98t367 -98t266 -266t98 -367t-98 -367.5t-266 -266.5t-367 -98q-149 0 -284.5 58t-233.5 156t-156 233.5t-58 284.5zM146 695q0 -134 52 -256t140.5 -210t210.5 -140t256 -52q179 0 330.5 88t239.5 239.5t88 330.5t-88 330.5 t-239.5 239.5t-330.5 88q-134 0 -256 -52t-210.5 -140t-140.5 -210t-52 -256zM503 1593l272 217h59l272 -217l-45 -57l-253 201h-7l-252 -201z" />
<glyph unicode="&#xd5;" horiz-adv-x="1609" d="M73 695q0 199 98 367t266.5 266t367.5 98t367 -98t266 -266t98 -367t-98 -367.5t-266 -266.5t-367 -98q-149 0 -284.5 58t-233.5 156t-156 233.5t-58 284.5zM146 695q0 -134 52 -256t140.5 -210t210.5 -140t256 -52q179 0 330.5 88t239.5 239.5t88 330.5t-88 330.5 t-239.5 239.5t-330.5 88q-134 0 -256 -52t-210.5 -140t-140.5 -210t-52 -256zM528 1633l10 49q11 62 48 92.5t87 30.5q52 0 88 -20l113 -62q38 -19 62 -19q52 0 62 64l11 50l72 -13l-9 -50q-11 -62 -48.5 -92t-87.5 -30q-52 0 -88 20l-113 62q-36 18 -62 18q-52 0 -62 -64 l-11 -49z" />
<glyph unicode="&#xd6;" horiz-adv-x="1609" d="M73 695q0 199 98 367t266.5 266t367.5 98t367 -98t266 -266t98 -367t-98 -367.5t-266 -266.5t-367 -98q-149 0 -284.5 58t-233.5 156t-156 233.5t-58 284.5zM146 695q0 -134 52 -256t140.5 -210t210.5 -140t256 -52q179 0 330.5 88t239.5 239.5t88 330.5t-88 330.5 t-239.5 239.5t-330.5 88q-134 0 -256 -52t-210.5 -140t-140.5 -210t-52 -256zM530 1655q0 26 19 45t45 19t45 -19t19 -45t-19 -45t-45 -19t-45 19t-19 45zM960 1655q0 26 19 45t45 19t45 -19t19 -45t-19 -45t-45 -19t-45 19t-19 45z" />
<glyph unicode="&#xd7;" horiz-adv-x="658" d="M69 452l209 206l-209 207l54 53l206 -209l207 209l51 -53l-207 -207l209 -206l-53 -53l-207 208l-206 -208z" />
<glyph unicode="&#xd8;" horiz-adv-x="1572" d="M73 695q0 145 56.5 277t152 227.5t227.5 152t277 56.5q136 0 259.5 -48.5t219.5 -136.5l136 136l51 -52l-135 -135q86 -96 134 -219t48 -258q0 -145 -56.5 -277t-152 -227.5t-227.5 -152t-277 -56.5q-134 0 -257 48.5t-220 135.5l-137 -137l-51 51l137 138 q-88 96 -136.5 219t-48.5 258zM146 695q0 -120 43 -230t120 -196l903 903q-181 163 -426 163q-130 0 -248.5 -51t-204 -136.5t-136.5 -204t-51 -248.5zM360 218q86 -77 196 -120t230 -43q130 0 248.5 51t204 136.5t136.5 204t51 248.5q0 243 -162 424z" />
<glyph unicode="&#xd9;" horiz-adv-x="1316" d="M110 1317v73h109v-915q0 -118 59 -219t160 -160t220 -59t220 59t160 160t59 219v915h73v-915q0 -212 -150 -362t-362 -150t-362 150t-150 362v842h-36zM499 1759l53 51l203 -205l-53 -51z" />
<glyph unicode="&#xda;" horiz-adv-x="1316" d="M110 1317v73h109v-915q0 -118 59 -219t160 -160t220 -59t220 59t160 160t59 219v915h73v-915q0 -212 -150 -362t-362 -150t-362 150t-150 362v842h-36zM563 1605l203 205l53 -51l-205 -205z" />
<glyph unicode="&#xdb;" horiz-adv-x="1316" d="M110 1317v73h109v-915q0 -118 59 -219t160 -160t220 -59t220 59t160 160t59 219v915h73v-915q0 -212 -150 -362t-362 -150t-362 150t-150 362v842h-36zM357 1593l272 217h59l272 -217l-46 -57l-252 201h-7l-253 -201z" />
<glyph unicode="&#xdc;" horiz-adv-x="1316" d="M110 1317v73h109v-915q0 -118 59 -219t160 -160t220 -59t220 59t160 160t59 219v915h73v-915q0 -212 -150 -362t-362 -150t-362 150t-150 362v842h-36zM384 1655q0 26 19 45t45 19t45 -19t19 -45t-19 -45t-45 -19t-45 19t-19 45zM814 1655q0 26 19 45t45 19t45 -19 t19 -45t-19 -45t-45 -19t-45 19t-19 45z" />
<glyph unicode="&#xdd;" horiz-adv-x="1243" d="M55 1317v73h75l490 -807h4l497 825l64 -37l-527 -872v-499h-73v499l-495 818h-35zM527 1605l203 205l53 -51l-205 -205z" />
<glyph unicode="&#xde;" horiz-adv-x="1170" d="M146 0v1390h73v-147h403q197 0 336 -139t139 -336t-139 -336t-336 -139h-403v-293h-73zM219 366h403q166 0 284 118t118 284t-118 284t-284 118h-403v-804z" />
<glyph unicode="&#xdf;" horiz-adv-x="1024" d="M73 585v73h73v83q0 99 93.5 163.5t217.5 64.5q138 0 236.5 -77.5t98.5 -192.5v-50q-109 13 -141 13q-90 0 -151 -38t-61 -83q0 -32 28 -57t73.5 -42t100 -33.5t109 -36t100 -43.5t73.5 -63t28 -89q0 -85 -94.5 -140t-223.5 -55q-90 0 -180 27t-135 86l59 44 q28 -37 100 -60.5t156 -23.5q108 0 176.5 39.5t68.5 82.5q0 41 -38 72t-95 48.5t-123 39.5t-123 44.5t-95 63.5t-38 96q0 85 85.5 139.5t199.5 54.5q20 0 64 -4q-16 72 -90.5 118.5t-167.5 46.5q-95 0 -166.5 -45t-71.5 -110v-741h-73v585h-73z" />
<glyph unicode="&#xe0;" horiz-adv-x="950" d="M37 0v73h27l386 896h51l410 -954l-66 -30l-101 234h-537l-94 -219h-76zM238 293h475l-238 552zM317 1320l53 51l203 -204l-53 -52z" />
<glyph unicode="&#xe1;" horiz-adv-x="950" d="M37 0v73h27l386 896h51l410 -954l-66 -30l-101 234h-537l-94 -219h-76zM238 293h475l-238 552zM381 1167l203 204l53 -51l-205 -205z" />
<glyph unicode="&#xe2;" horiz-adv-x="950" d="M37 0v73h27l386 896h51l410 -954l-66 -30l-101 234h-537l-94 -219h-76zM174 1154l272 217h59l272 -217l-45 -57l-253 201h-7l-252 -201zM238 293h475l-238 552z" />
<glyph unicode="&#xe3;" horiz-adv-x="950" d="M37 0v73h27l386 896h51l410 -954l-66 -30l-101 234h-537l-94 -219h-76zM199 1194l9 49q11 62 48.5 92.5t87.5 30.5q52 0 88 -20l113 -62q38 -19 62 -19q52 0 62 64l11 50l72 -13l-10 -49q-11 -62 -48 -92.5t-87 -30.5q-52 0 -88 20l-113 62q-38 19 -62 19q-52 0 -62 -64 l-11 -50zM238 293h475l-238 552z" />
<glyph unicode="&#xe4;" horiz-adv-x="950" d="M37 0v73h27l386 896h51l410 -954l-66 -30l-101 234h-537l-94 -219h-76zM201 1216q0 26 19 45t45 19t45 -19t19 -45t-19 -45t-45 -19t-45 19t-19 45zM238 293h475l-238 552zM631 1216q0 26 19 45t45 19t45 -19t19 -45t-19 -45t-45 -19t-45 19t-19 45z" />
<glyph unicode="&#xe5;" horiz-adv-x="950" d="M37 0v73h27l386 896h51l410 -954l-66 -30l-101 234h-537l-94 -219h-76zM238 293h475l-238 552zM292 1207q0 71 59 128q56 55 124 55t124 -55q59 -57 59 -128t-59 -128q-56 -55 -124 -55q-65 0 -124 57t-59 126zM347 1207q0 -48 40 -88t88 -40q45 0 88 40q40 40 40 88 t-40 88q-43 40 -88 40t-88 -40q-40 -40 -40 -88z" />
<glyph unicode="&#xe6;" horiz-adv-x="1316" d="M40 9l477 942h653v-110h-73v37h-366v-366h293v-73h-293v-366h439v37h73v-110h-585v219h-429l-123 -243zM265 293h393v585h-97z" />
<glyph unicode="&#xe7;" horiz-adv-x="987" d="M73 475q0 134 66.5 247.5t180 180t247.5 66.5q189 0 334 -132l13 -10v-59h-73v26q-120 102 -274 102q-174 0 -297.5 -123.5t-123.5 -297.5t123.5 -297t297.5 -123q89 0 168.5 35t138.5 98l55 -51q-69 -74 -162.5 -114.5t-199.5 -40.5q-27 0 -40 2l-22 -85q29 8 55 8 q79 0 125 -53t46 -123q0 -74 -54.5 -115.5t-124.5 -41.5q-50 0 -93.5 22.5t-67.5 63.5l48 27q34 -58 113 -58q51 0 78.5 32.5t27.5 77.5t-26 79t-72 34q-10 0 -18 -1t-18 -4.5t-14 -4.5t-17.5 -7.5t-17.5 -8.5l-47 13l44 152q-172 33 -285.5 169.5t-113.5 314.5z" />
<glyph unicode="&#xe8;" horiz-adv-x="877" d="M110 878v73h621v-110h-73v37h-439v-366h366v-73h-366v-366h512v37h74v-110h-659v878h-36zM280 1320l53 51l203 -204l-53 -52z" />
<glyph unicode="&#xe9;" horiz-adv-x="877" d="M110 878v73h621v-110h-73v37h-439v-366h366v-73h-366v-366h512v37h74v-110h-659v878h-36zM344 1167l203 204l53 -51l-205 -205z" />
<glyph unicode="&#xea;" horiz-adv-x="877" d="M110 878v73h621v-110h-73v37h-439v-366h366v-73h-366v-366h512v37h74v-110h-659v878h-36zM137 1154l272 217h59l272 -217l-45 -57l-253 201h-7l-252 -201z" />
<glyph unicode="&#xeb;" horiz-adv-x="877" d="M110 878v73h621v-110h-73v37h-439v-366h366v-73h-366v-366h512v37h74v-110h-659v878h-36zM165 1216q0 26 19 45t45 19t45 -19t19 -45t-19 -45t-45 -19t-45 19t-19 45zM595 1216q0 26 19 45t45 19t45 -19t19 -45t-19 -45t-45 -19t-45 19t-19 45z" />
<glyph unicode="&#xec;" d="M15 1320l53 51l203 -204l-53 -52zM110 878v73h109v-951h-73v878h-36z" />
<glyph unicode="&#xed;" d="M79 1167l203 204l53 -51l-205 -205zM110 878v73h109v-951h-73v878h-36z" />
<glyph unicode="&#xee;" d="M-64 1209l218 162h58l218 -162l-46 -57l-197 146h-8l-197 -146zM110 878v73h109v-951h-73v878h-36z" />
<glyph unicode="&#xef;" d="M-27 1216q0 26 19 45t45 19t45 -19t19 -45t-19 -45t-45 -19t-45 19t-19 45zM110 878v73h109v-951h-73v878h-36zM265 1216q0 26 19 45t45 19t45 -19t19 -45t-19 -45t-45 -19t-45 19t-19 45z" />
<glyph unicode="&#xf0;" horiz-adv-x="1024" d="M37 439v73h109v439h302q208 0 355.5 -139.5t147.5 -336.5q0 -129 -67.5 -238.5t-183 -173t-252.5 -63.5h-302v439h-109zM219 73h233q177 0 301.5 117.5t124.5 284.5t-124.5 285t-301.5 118h-233v-366h220v-73h-220v-366z" />
<glyph unicode="&#xf1;" horiz-adv-x="1024" d="M110 878v73h122l573 -841v841h73v-969h-75l-584 859v-841h-73v878h-36zM236 1194l9 49q11 62 48.5 92.5t87.5 30.5q52 0 88 -20l113 -62q38 -19 62 -19q52 0 62 64l11 50l72 -13l-10 -49q-11 -62 -48 -92.5t-87 -30.5q-52 0 -88 20l-113 62q-38 19 -62 19q-52 0 -62 -64 l-11 -50z" />
<glyph unicode="&#xf2;" horiz-adv-x="1097" d="M73 475q0 133 63.5 247t173.5 180.5t239 66.5t238.5 -66.5t173 -180.5t63.5 -247t-63.5 -246.5t-173 -180t-238.5 -66.5q-197 0 -336.5 145t-139.5 348zM146 475q0 -175 119 -297.5t284 -122.5t283.5 122.5t118.5 297.5t-118.5 298t-283.5 123t-284 -123t-119 -298z M426 1320l53 51l203 -204l-53 -52z" />
<glyph unicode="&#xf3;" horiz-adv-x="1097" d="M73 475q0 133 63.5 247t173.5 180.5t239 66.5t238.5 -66.5t173 -180.5t63.5 -247t-63.5 -246.5t-173 -180t-238.5 -66.5q-197 0 -336.5 145t-139.5 348zM146 475q0 -175 119 -297.5t284 -122.5t283.5 122.5t118.5 297.5t-118.5 298t-283.5 123t-284 -123t-119 -298z M490 1167l203 204l53 -51l-205 -205z" />
<glyph unicode="&#xf4;" horiz-adv-x="1097" d="M73 475q0 133 63.5 247t173.5 180.5t239 66.5t238.5 -66.5t173 -180.5t63.5 -247t-63.5 -246.5t-173 -180t-238.5 -66.5q-197 0 -336.5 145t-139.5 348zM146 475q0 -175 119 -297.5t284 -122.5t283.5 122.5t118.5 297.5t-118.5 298t-283.5 123t-284 -123t-119 -298z M283 1154l272 217h59l272 -217l-45 -57l-253 201h-7l-252 -201z" />
<glyph unicode="&#xf5;" horiz-adv-x="1097" d="M73 475q0 133 63.5 247t173.5 180.5t239 66.5t238.5 -66.5t173 -180.5t63.5 -247t-63.5 -246.5t-173 -180t-238.5 -66.5q-197 0 -336.5 145t-139.5 348zM146 475q0 -175 119 -297.5t284 -122.5t283.5 122.5t118.5 297.5t-118.5 298t-283.5 123t-284 -123t-119 -298z M309 1194l9 49q11 62 48.5 92.5t87.5 30.5q52 0 88 -20l113 -62q38 -19 62 -19q52 0 62 64l11 50l72 -13l-10 -49q-11 -62 -48 -92.5t-87 -30.5q-52 0 -88 20l-113 62q-38 19 -62 19q-52 0 -62 -64l-11 -50z" />
<glyph unicode="&#xf6;" horiz-adv-x="1097" d="M73 475q0 133 63.5 247t173.5 180.5t239 66.5t238.5 -66.5t173 -180.5t63.5 -247t-63.5 -246.5t-173 -180t-238.5 -66.5q-197 0 -336.5 145t-139.5 348zM146 475q0 -175 119 -297.5t284 -122.5t283.5 122.5t118.5 297.5t-118.5 298t-283.5 123t-284 -123t-119 -298z M311 1216q0 26 19 45t45 19t45 -19t19 -45t-19 -45t-45 -19t-45 19t-19 45zM741 1216q0 26 19 45t45 19t45 -19t19 -45t-19 -45t-45 -19t-45 19t-19 45z" />
<glyph unicode="&#xf7;" horiz-adv-x="658" d="M73 439v73h512v-73h-512zM265 247q0 26 19 45t45 19t45 -19t19 -45t-19 -45t-45 -19t-45 19t-19 45zM265 704q0 26 19 45t45 19t45 -19t19 -45t-19 -45t-45 -19t-45 19t-19 45z" />
<glyph unicode="&#xf8;" horiz-adv-x="1170" d="M73 475q0 212 150 362t362 150q196 0 337 -124l95 95l51 -51l-95 -95q124 -141 124 -337q0 -212 -150 -362t-362 -150q-194 0 -336 125l-95 -95l-52 51l95 95q-124 141 -124 336zM146 475q0 -161 105 -283l618 618q-121 104 -284 104q-118 0 -219.5 -59t-160.5 -160.5 t-59 -219.5zM302 141q121 -104 283 -104q119 0 220 59t160 160t59 219q0 163 -104 284z" />
<glyph unicode="&#xf9;" horiz-adv-x="1024" d="M110 878v73h109v-604q0 -121 86 -206.5t207 -85.5t207 85.5t86 206.5v604h73v-604q0 -151 -107.5 -258t-258.5 -107t-258.5 107t-107.5 258v531h-36zM353 1320l53 51l203 -204l-53 -52z" />
<glyph unicode="&#xfa;" horiz-adv-x="1024" d="M110 878v73h109v-604q0 -121 86 -206.5t207 -85.5t207 85.5t86 206.5v604h73v-604q0 -151 -107.5 -258t-258.5 -107t-258.5 107t-107.5 258v531h-36zM417 1167l203 204l53 -51l-205 -205z" />
<glyph unicode="&#xfb;" horiz-adv-x="1024" d="M110 878v73h109v-604q0 -121 86 -206.5t207 -85.5t207 85.5t86 206.5v604h73v-604q0 -151 -107.5 -258t-258.5 -107t-258.5 107t-107.5 258v531h-36zM210 1154l272 217h59l272 -217l-45 -57l-253 201h-7l-252 -201z" />
<glyph unicode="&#xfc;" horiz-adv-x="1024" d="M110 878v73h109v-604q0 -121 86 -206.5t207 -85.5t207 85.5t86 206.5v604h73v-604q0 -151 -107.5 -258t-258.5 -107t-258.5 107t-107.5 258v531h-36zM238 1216q0 26 19 45t45 19t45 -19t19 -45t-19 -45t-45 -19t-45 19t-19 45zM668 1216q0 26 19 45t45 19t45 -19t19 -45 t-19 -45t-45 -19t-45 19t-19 45z" />
<glyph unicode="&#xfd;" horiz-adv-x="950" d="M55 878v73h84l336 -534l353 561l63 -40l-379 -600v-338h-73v338l-340 540h-44zM381 1167l203 204l53 -51l-205 -205z" />
<glyph unicode="&#xfe;" horiz-adv-x="950" d="M146 0v951h73v-73h311q145 0 246.5 -95.5t101.5 -233.5t-98 -234t-239 -96h-322v-219h-73zM219 293h309q114 0 195.5 75t81.5 182t-81 181t-196 74h-309v-512z" />
<glyph unicode="&#xff;" horiz-adv-x="950" d="M55 878v73h84l336 -534l353 561l63 -40l-379 -600v-338h-73v338l-340 540h-44zM201 1216q0 26 19 45t45 19t45 -19t19 -45t-19 -45t-45 -19t-45 19t-19 45zM631 1216q0 26 19 45t45 19t45 -19t19 -45t-19 -45t-45 -19t-45 19t-19 45z" />
<glyph unicode="&#x152;" horiz-adv-x="1755" d="M73 695q0 141 55 270t148 222t222 148t270 55h841v-110h-73v37h-585v-586h366v-73h-366v-585h658v37h73v-110h-914q-141 0 -270 55t-222 148t-148 222t-55 270zM146 695q0 -127 49 -242t132.5 -198.5t198.5 -132.5t242 -49h110v1244h-110q-127 0 -242 -49t-198.5 -132.5 t-132.5 -198.5t-49 -242z" />
<glyph unicode="&#x153;" horiz-adv-x="1316" d="M73 475q0 197 147.5 336.5t355.5 139.5h594v-110h-73v37h-366v-366h293v-73h-293v-366h439v37h73v-110h-667q-137 0 -252.5 63.5t-183 173t-67.5 238.5zM146 475q0 -167 124.5 -284.5t301.5 -117.5h86v805h-86q-177 0 -301.5 -118t-124.5 -285z" />
<glyph unicode="&#x178;" horiz-adv-x="1243" d="M55 1317v73h75l490 -807h4l493 821l64 -36l-523 -869v-499h-73v499l-495 818h-35zM347 1655q0 26 19 45t45 19t45 -19t19 -45t-19 -45t-45 -19t-45 19t-19 45zM777 1655q0 26 19 45t45 19t45 -19t19 -45t-19 -45t-45 -19t-45 19t-19 45z" />
<glyph unicode="&#x2c6;" horiz-adv-x="804" d="M101 1154l272 217h59l272 -217l-46 -57l-252 201h-7l-253 -201z" />
<glyph unicode="&#x2dc;" horiz-adv-x="585" d="M16 1194l10 49q11 62 48 92.5t87 30.5q52 0 88 -20l113 -62q38 -19 62 -19q52 0 62 64l11 50l72 -13l-9 -49q-11 -62 -48.5 -92.5t-87.5 -30.5q-52 0 -88 20l-113 62q-38 19 -62 19q-52 0 -62 -64l-11 -50z" />
<glyph unicode="&#x2000;" horiz-adv-x="914" />
<glyph unicode="&#x2001;" horiz-adv-x="1829" />
<glyph unicode="&#x2002;" horiz-adv-x="914" />
<glyph unicode="&#x2003;" horiz-adv-x="1829" />
<glyph unicode="&#x2004;" horiz-adv-x="609" />
<glyph unicode="&#x2005;" horiz-adv-x="457" />
<glyph unicode="&#x2006;" horiz-adv-x="304" />
<glyph unicode="&#x2007;" horiz-adv-x="304" />
<glyph unicode="&#x2008;" horiz-adv-x="228" />
<glyph unicode="&#x2009;" />
<glyph unicode="&#x200a;" horiz-adv-x="101" />
<glyph unicode="&#x2010;" horiz-adv-x="658" d="M73 512v73h512v-73h-512z" />
<glyph unicode="&#x2011;" horiz-adv-x="658" d="M73 512v73h512v-73h-512z" />
<glyph unicode="&#x2012;" horiz-adv-x="658" d="M73 512v73h512v-73h-512z" />
<glyph unicode="&#x2013;" horiz-adv-x="950" d="M73 512v73h805v-73h-805z" />
<glyph unicode="&#x2014;" horiz-adv-x="1828" d="M73 512v73h1682v-73h-1682z" />
<glyph unicode="&#x2018;" d="M128 1189q0 133 123 256l32 -33q-73 -73 -73 -163q20 -5 33 -22.5t13 -37.5q0 -26 -19 -45t-45 -19t-45 19t-19 45z" />
<glyph unicode="&#x2019;" d="M82 1157q73 73 73 163q-19 5 -32 23t-13 38q0 26 19 45t45 19t45 -19t19 -45q0 -133 -123 -256z" />
<glyph unicode="&#x201a;" d="M82 -177q73 73 73 162q-19 5 -32 23t-13 38q0 26 19 45t45 19t45 -19t19 -45q0 -133 -123 -256z" />
<glyph unicode="&#x201c;" horiz-adv-x="585" d="M128 1189q0 133 123 256l32 -33q-73 -73 -73 -163q20 -5 33 -22.5t13 -37.5q0 -26 -19 -45t-45 -19t-45 19t-19 45zM347 1189q0 133 123 256l33 -33q-73 -73 -73 -163q19 -5 32 -22.5t13 -37.5q0 -26 -19 -45t-45 -19t-45 19t-19 45z" />
<glyph unicode="&#x201d;" horiz-adv-x="585" d="M82 1157q73 73 73 163q-19 5 -32 23t-13 38q0 26 19 45t45 19t45 -19t19 -45q0 -133 -123 -256zM302 1157q73 73 73 163q-19 5 -32.5 23t-13.5 38q0 26 19 45t45 19t45 -19t19 -45q0 -134 -122 -256z" />
<glyph unicode="&#x201e;" horiz-adv-x="585" d="M82 -177q73 73 73 162q-19 5 -32 23t-13 38q0 26 19 45t45 19t45 -19t19 -45q0 -133 -123 -256zM302 -177q73 73 73 162q-19 5 -32.5 23t-13.5 38q0 26 19 45t45 19t45 -19t19 -45q0 -134 -122 -256z" />
<glyph unicode="&#x2022;" horiz-adv-x="512" d="M73 475q0 76 53.5 129.5t129.5 53.5t129.5 -53.5t53.5 -129.5t-53.5 -129t-129.5 -53t-129.5 53t-53.5 129z" />
<glyph unicode="&#x2026;" horiz-adv-x="950" d="M110 46q0 26 19 45t45 19t45 -19t19 -45t-19 -45t-45 -19t-45 19t-19 45zM402 46q0 26 19 45t45 19t45 -19t19 -45t-19 -45t-45 -19t-45 19t-19 45zM695 46q0 26 19 45t45 19t45 -19t19 -45t-19 -45t-45 -19t-45 19t-19 45z" />
<glyph unicode="&#x202f;" />
<glyph unicode="&#x2039;" horiz-adv-x="438" d="M55 446v59l254 311l57 -48l-238 -291v-5l238 -287l-57 -46z" />
<glyph unicode="&#x203a;" horiz-adv-x="438" d="M73 185l238 287v5l-238 291l57 48l254 -311v-59l-254 -307z" />
<glyph unicode="&#x205f;" horiz-adv-x="457" />
<glyph unicode="&#x20ac;" horiz-adv-x="1097" d="M73 329l9 73h142q-5 40 -5 73q0 34 5 74h-114l9 73h120q43 153 158.5 250t260.5 97q204 0 335 -119l13 -11v-89h-73v56q-105 90 -275 90q-116 0 -209 -76t-133 -198h443l-9 -73h-452q-5 -30 -5 -74q0 -43 5 -73h424l-9 -73h-397q40 -122 133 -198t209 -76q155 0 274 101 l48 -57q-138 -117 -322 -117q-145 0 -260.5 97t-158.5 250h-166z" />
<glyph unicode="&#x25fc;" horiz-adv-x="975" d="M0 0v975h975v-975h-975z" />
</font>
</defs>
</svg>
