<?xml version="1.0" encoding="utf-8"?>
<!-- Generator: Adobe Illustrator 15.0.0, SVG Export Plug-In . SVG Version: 6.00 Build 0)  -->
<!DOCTYPE svg PUBLIC "-//W3C//DTD SVG 1.1//EN" "http://www.w3.org/Graphics/SVG/1.1/DTD/svg11.dtd">
<svg version="1.1" id="Layer_1" xmlns="http://www.w3.org/2000/svg" xmlns:xlink="http://www.w3.org/1999/xlink" x="0px" y="0px"
	 width="454px" height="166px" viewBox="0 0 454 166" enable-background="new 0 0 454 166" xml:space="preserve">
<g>
	<g>
		<g>
			<path fill="#FFFFFF" d="M30.134,152.749V94.27h15.431c4.851,0,8.446,0.688,10.784,2.061c2.337,1.374,4.223,3.42,5.654,6.137
				c1.433,2.719,2.148,5.539,2.148,8.461c0,3.156-0.775,6.108-2.323,8.855c-1.549,2.748-3.697,4.764-6.443,6.049
				c-2.398,1.052-6.313,1.578-11.749,1.578H32.414v25.338H30.134z M32.414,96.375v28.932h11.31c6.254,0,10.666-1.084,13.238-3.254
				c3.272-2.755,4.91-6.507,4.91-11.256c0-2.639-0.613-5.086-1.841-7.344c-1.229-2.257-2.88-4.001-4.954-5.232
				c-2.075-1.23-6.005-1.846-11.792-1.846H32.414z"/>
			<path fill="#FFFFFF" d="M88.437,94.27h2.279v37.319c0,3.513,0.116,5.97,0.353,7.376c0.47,2.459,1.469,4.712,2.998,6.76
				c2.998,3.982,7.053,5.972,12.168,5.972c5.112,0,9.139-1.784,12.078-5.356c1.646-1.989,2.703-4.214,3.175-6.673
				c0.293-1.405,0.44-3.864,0.44-7.377V94.27h2.28v37.963c0,3.977-0.322,7.102-0.965,9.381c-0.644,2.279-1.783,4.355-3.419,6.225
				c-3.508,3.977-8.038,5.963-13.59,5.963c-3.216,0-6.225-0.805-9.03-2.411c-2.807-1.607-4.969-3.827-6.488-6.663
				c-1.521-2.834-2.279-7.234-2.279-13.195V94.27z"/>
			<path fill="#FFFFFF" d="M147.265,96.375l0.089-2.105h33.842v2.105h-15.869v56.373h-2.279V96.375H147.265z"/>
			<path fill="#FFFFFF" d="M204.953,152.749V94.27h32.002v2.105h-29.722v25.863h29.722v2.104h-29.722v26.303h29.722v2.104H204.953z"
				/>
			<path fill="#FFFFFF" d="M299.115,152.749l-2.806-8.504h-20.34l-3.069,8.504h-16.044l23.409-58.479h11.836l23.233,58.479H299.115z
				 M286.227,112.418l-6.137,19.99h12.188L286.227,112.418z"/>
			<path fill="#FFFFFF" d="M350.053,152.749h-14.291V94.27h19.112c8.476,0,14.468,1.463,17.974,4.384
				c4.559,3.8,6.839,8.974,6.839,15.519c0,6.313-2.047,11.369-6.138,15.168c-3.624,3.391-9.322,5.085-17.096,5.085h-6.4V152.749z
				 M350.053,107.508v13.678h6.05c6.194,0,9.293-2.265,9.293-6.795c0-4.588-3.304-6.883-9.907-6.883H350.053z"/>
			<path fill="#FFFFFF" d="M416.509,152.749h-14.291V94.27h19.113c8.474,0,14.466,1.463,17.973,4.384
				c4.56,3.8,6.839,8.974,6.839,15.519c0,6.313-2.047,11.369-6.137,15.168c-3.625,3.391-9.323,5.085-17.097,5.085h-6.4V152.749z
				 M416.509,107.508v13.678h6.05c6.195,0,9.293-2.265,9.293-6.795c0-4.588-3.303-6.883-9.906-6.883H416.509z"/>
		</g>
	</g>
	<linearGradient id="SVGID_1_" gradientUnits="userSpaceOnUse" x1="68.4272" y1="103.8867" x2="68.4272" y2="104.4465">
		<stop  offset="0" style="stop-color:#D5BE29"/>
		<stop  offset="0.5155" style="stop-color:#D35F27"/>
		<stop  offset="1" style="stop-color:#E62E25"/>
	</linearGradient>
	<path fill="url(#SVGID_1_)" d="M68.732,103.893c-0.201,0.165-0.408,0.33-0.61,0.5C68.324,104.243,68.527,104.073,68.732,103.893z"
		/>
	<g>
		<linearGradient id="SVGID_2_" gradientUnits="userSpaceOnUse" x1="44.9868" y1="5.4351" x2="44.9868" y2="114.2925">
			<stop  offset="0" style="stop-color:#D5BE29"/>
			<stop  offset="0.5155" style="stop-color:#D35F27"/>
			<stop  offset="1" style="stop-color:#E62E25"/>
		</linearGradient>
		<path fill="url(#SVGID_2_)" d="M82.241,82.911c-1.226-1.455-2.335-3.354-3.239-5.465c-0.92-2.55-3.041-9.309-3.041-17.439
			c0-10.383-3.659-16.216-6.732-19.536c0.334,6.706-3.835,12.074-8.336,14.086c6.17-18.111-2.002-26.563-6.5-30.722
			c0.666,8.855-0.834,12.879-3.165,16.231c-0.167-4.425-2.337-9.389-5.673-15.024c-3.331-5.635-4.83-10.598-1.833-18.379
			c-21.171,11.94-10.834,27.502-12.001,30.32c-4.839-6.439-7.839-7.512-14.172-9.927c6.163,12.325,5.505,19.165,3.511,26.401
			c-0.005,0-0.011,0.002-0.015,0.004c-1.677-5.889-7.832-9.101-10.664-10.575c0,0,3.155,11.382,0.799,22.699
			C8.828,76.901,6.476,80.243,8.504,89.087c1.07,4.522,3.24,9.088,7.04,13.361c-1.328-3.888-0.92-4.397-0.92-5.933
			c2.048,3.273,2.763,4.91,4.911,6.854c-2.148-4.91-5.319-18.209,2.044-22.096c3.784,3.068,4.605,4.193,9.819,5.524
			c-2.76-2.966-8.895-11.253-1.125-20.152c0.719,7.365,0.719,15.958,15.041,16.98c14.318,1.023,29.969-10.638,28.947,6.14
			c-0.379,7.109-2.953,11.844-5.529,14.127c5.179-4.221,9.801-7.283,9.11-23.232C79.477,81.582,80.5,82.604,82.241,82.911z
			 M12.005,72.207c3.15-8.361,2.181-16.597,2.181-16.597C15.88,63.846,14.791,66.514,12.005,72.207z M44.235,81.572
			c7.302,0.942,13.725-1.393,13.725-1.393C51.674,83.096,49.328,82.727,44.235,81.572z M60.986,44.962
			c0.57-6.403-1.691-11.927-1.691-11.927C62.063,38.418,61.818,40.477,60.986,44.962z"/>
		<linearGradient id="SVGID_3_" gradientUnits="userSpaceOnUse" x1="65.583" y1="21.5068" x2="64.9564" y2="33.214">
			<stop  offset="0" style="stop-color:#D5BE29"/>
			<stop  offset="0.6178" style="stop-color:#D35F27"/>
			<stop  offset="1" style="stop-color:#E62E25"/>
		</linearGradient>
		<path fill="url(#SVGID_3_)" d="M64.436,20.592c0,0,3.14,2.174,1.811,6.724c-0.804,2.616-1.126,3.059-1.126,4.307
			c0,0-0.523-3.261-0.161-5.676C65.32,23.531,64.999,21.317,64.436,20.592z"/>
		<linearGradient id="SVGID_4_" gradientUnits="userSpaceOnUse" x1="26.251" y1="10.9321" x2="25.4096" y2="26.6518">
			<stop  offset="0" style="stop-color:#D5BE29"/>
			<stop  offset="0.6178" style="stop-color:#D35F27"/>
			<stop  offset="1" style="stop-color:#E62E25"/>
		</linearGradient>
		<path fill="url(#SVGID_4_)" d="M24.71,9.704c0,0,4.217,2.919,2.432,9.027c-1.08,3.514-1.513,4.108-1.513,5.784
			c0,0-0.702-4.378-0.216-7.622C25.898,13.651,25.467,10.677,24.71,9.704z"/>
	</g>
</g>
</svg>
