<?xml version="1.0" encoding="utf-8"?>
<!-- Generator: Adobe Illustrator 16.0.0, SVG Export Plug-In . SVG Version: 6.00 Build 0)  -->
<!DOCTYPE svg PUBLIC "-//W3C//DTD SVG 1.1//EN" "http://www.w3.org/Graphics/SVG/1.1/DTD/svg11.dtd">
<svg version="1.1" xmlns="http://www.w3.org/2000/svg" xmlns:xlink="http://www.w3.org/1999/xlink" x="0px" y="0px" width="640px"
	 height="640px" viewBox="-284.142 -286.142 640 640" enable-background="new -284.142 -286.142 640 640" xml:space="preserve">
	 <style>
		#one,#two,#tree{
			animation: manotas 2s ease-in infinite;
		}
	 	@keyframes manotas{
		 	0%{transform:scale (-0.5);
		 	opacity:1;
		 	transform-origin: 0 0;}
			100%{transform:scale(2.0);
			opacity:0;
			transform-origin: 25% 15%;}
	 	}
	 </style>
<g id="Layer_1">
	<g>
		<path fill="#E8634C" d="M35.858-20.218c-7.752,0-14.059,6.308-14.059,14.059v26.68c0,7.752,6.307,14.059,14.059,14.059
			s14.059-6.307,14.059-14.059v-26.68C49.917-13.91,43.61-20.218,35.858-20.218z"/>
		<path fill="#E8634C" d="M69.208,6.668c-4.076,0-7.393,3.315-7.393,7.392v6.461c0,14.313-11.645,25.958-25.957,25.958
			C21.545,46.479,9.9,34.834,9.9,20.521V14.06c0-4.076-3.315-7.392-7.39-7.392c-4.075,0-7.391,3.315-7.391,7.392v6.461
			c0,19.68,13.987,36.383,33.349,39.941v12.693h-5.95c-7.752,0-14.059,6.309-14.059,14.061v0.719h54.796h0.003v-0.717
			c0-7.752-6.309-14.061-14.061-14.061h-5.949V60.464c19.361-3.561,33.348-20.263,33.348-39.943V14.06
			C76.597,9.983,73.281,6.668,69.208,6.668z"/>
	</g>
	<path fill="none" stroke="#E8634C" stroke-width="1.5" stroke-miterlimit="10" d="M35.859-41.142c-41.356,0-75,33.646-75,75
		c0,41.356,33.646,75,75,75c41.356,0,75-33.644,75-75C110.858-7.496,77.215-41.142,35.859-41.142z"/>
</g>
<g id="Capa_2">
	<path id="one" fill="none" stroke="#E8A79B" stroke-width="1.5" stroke-miterlimit="10" d="M35.859-71.809
		c-58.267,0-105.668,47.403-105.668,105.667c0,58.267,47.404,105.667,105.668,105.667c58.266,0,105.666-47.4,105.666-105.667
		C141.525-24.406,94.125-71.809,35.859-71.809z"/>
		

</g>
<g id="Capa_3">
	<path id="two" fill="none" stroke="#E8C0BA" stroke-width="1.5" stroke-miterlimit="10" d="M35.859-99.142
		c-73.338,0-133.001,59.665-133.001,133c0,73.339,59.666,133,133.001,133c73.338,0,132.999-59.661,132.999-133
		C168.858-39.477,109.197-99.142,35.859-99.142z"/>
		
</g>
<g id="Capa_4">
	<path id="tree" opacity="0.5" fill="none" stroke="#E8C0BA" stroke-width="1.5" stroke-miterlimit="10" d="M35.86-123.015
		c-86.503,0-156.875,70.374-156.875,156.873c0,86.503,70.376,156.873,156.875,156.873c86.501,0,156.871-70.37,156.871-156.873
		C192.731-52.641,122.361-123.015,35.86-123.015z"/>
		
</g>
<g id="Capa_5">
	<g>
		<path fill="#E8634C" d="M-17.206,139.707c-1.153,0.414-3.429,1.093-6.118,1.093c-3.017,0-5.499-0.769-7.449-2.631
			c-1.714-1.656-2.779-4.315-2.779-7.421c0.03-5.939,4.108-10.286,10.79-10.286c2.305,0,4.108,0.503,4.966,0.917l-0.621,2.099
			c-1.064-0.472-2.394-0.856-4.405-0.856c-4.847,0-8.01,3.016-8.01,8.01c0,5.054,3.045,8.041,7.686,8.041
			c1.685,0,2.837-0.238,3.429-0.532v-5.942h-4.05v-2.069h6.563V139.707z"/>
		<path fill="#E8634C" d="M-13.354,130.748c0-1.685-0.028-3.131-0.117-4.462h2.275l0.089,2.809h0.118
			c0.649-1.923,2.217-3.134,3.96-3.134c0.296,0,0.503,0.029,0.739,0.09v2.452c-0.266-0.061-0.532-0.089-0.886-0.089
			c-1.833,0-3.134,1.389-3.488,3.341c-0.06,0.354-0.118,0.768-0.118,1.21v7.628h-2.572V130.748z"/>
		<path fill="#E8634C" d="M4.093,140.593l-0.207-1.803H3.797c-0.798,1.124-2.335,2.127-4.375,2.127
			c-2.896,0-4.374-2.038-4.374-4.108c0-3.458,3.073-5.35,8.601-5.321v-0.294c0-1.184-0.324-3.312-3.251-3.312
			c-1.33,0-2.719,0.414-3.724,1.063l-0.592-1.713c1.183-0.769,2.897-1.271,4.7-1.271c4.374,0,5.438,2.984,5.438,5.852v5.351
			c0,1.241,0.059,2.454,0.236,3.43H4.093z M3.709,133.293c-2.838-0.061-6.061,0.442-6.061,3.22c0,1.685,1.124,2.484,2.454,2.484
			c1.861,0,3.044-1.182,3.458-2.396c0.088-0.265,0.148-0.561,0.148-0.827V133.293z"/>
		<path fill="#E8634C" d="M10.308,140.593c0.059-0.976,0.117-2.424,0.117-3.695v-17.293h2.572v8.987h0.059
			c0.917-1.596,2.572-2.631,4.878-2.631c3.546,0,6.059,2.956,6.03,7.3c0,5.115-3.223,7.656-6.414,7.656
			c-2.07,0-3.725-0.796-4.789-2.688h-0.089l-0.118,2.364H10.308z M12.997,134.857c0,0.327,0.059,0.651,0.117,0.945
			c0.504,1.806,2.01,3.045,3.902,3.045c2.72,0,4.345-2.217,4.345-5.497c0-2.867-1.478-5.322-4.256-5.322
			c-1.774,0-3.429,1.214-3.961,3.194c-0.059,0.296-0.147,0.649-0.147,1.063V134.857z"/>
		<path fill="#E8634C" d="M35.176,140.593l-0.207-1.803H34.88c-0.798,1.124-2.335,2.127-4.375,2.127
			c-2.896,0-4.374-2.038-4.374-4.108c0-3.458,3.073-5.35,8.601-5.321v-0.294c0-1.184-0.324-3.312-3.25-3.312
			c-1.331,0-2.72,0.414-3.725,1.063l-0.592-1.713c1.183-0.769,2.896-1.271,4.7-1.271c4.374,0,5.438,2.984,5.438,5.852v5.351
			c0,1.241,0.059,2.454,0.236,3.43H35.176z M34.791,133.293c-2.838-0.061-6.06,0.442-6.06,3.22c0,1.685,1.124,2.484,2.454,2.484
			c1.861,0,3.044-1.182,3.458-2.396c0.088-0.265,0.147-0.561,0.147-0.827V133.293z"/>
		<path fill="#E8634C" d="M41.508,130.159c0-1.479-0.028-2.691-0.117-3.873h2.306l0.146,2.363h0.061
			c0.708-1.359,2.363-2.688,4.729-2.688c1.98,0,5.055,1.183,5.055,6.09v8.542h-2.602v-8.246c0-2.306-0.857-4.229-3.311-4.229
			c-1.715,0-3.045,1.213-3.487,2.662c-0.118,0.324-0.177,0.768-0.177,1.21v8.603h-2.603V130.159z"/>
		<path fill="#E8634C" d="M70.276,119.604v17.293c0,1.271,0.03,2.72,0.118,3.695H68.06l-0.117-2.484h-0.059
			c-0.8,1.599-2.543,2.809-4.879,2.809c-3.458,0-6.119-2.927-6.119-7.271c-0.028-4.759,2.928-7.686,6.414-7.686
			c2.188,0,3.666,1.035,4.317,2.188h0.06v-8.545H70.276z M67.677,132.108c0-0.325-0.031-0.768-0.119-1.093
			c-0.385-1.656-1.803-3.016-3.754-3.016c-2.689,0-4.287,2.366-4.287,5.528c0,2.896,1.419,5.29,4.229,5.29
			c1.743,0,3.339-1.152,3.813-3.103c0.088-0.355,0.119-0.71,0.119-1.124V132.108z"/>
		<path fill="#E8634C" d="M87.548,133.321c0,5.29-3.664,7.596-7.123,7.596c-3.873,0-6.857-2.837-6.857-7.359
			c0-4.787,3.133-7.597,7.094-7.597C84.771,125.961,87.548,128.945,87.548,133.321z M76.197,133.468c0,3.134,1.804,5.5,4.346,5.5
			c2.483,0,4.345-2.337,4.345-5.558c0-2.424-1.211-5.499-4.285-5.499S76.197,130.748,76.197,133.468z"/>
		<path fill="#E8634C" d="M89.509,139.055c0-1.093,0.738-1.86,1.773-1.86s1.744,0.768,1.744,1.86c0,1.066-0.68,1.862-1.773,1.862
			C90.218,140.917,89.509,140.121,89.509,139.055z"/>
		<path fill="#E8634C" d="M95.63,139.055c0-1.093,0.738-1.86,1.773-1.86s1.744,0.768,1.744,1.86c0,1.066-0.68,1.862-1.773,1.862
			C96.341,140.917,95.63,140.121,95.63,139.055z"/>
		<path fill="#E8634C" d="M101.751,139.055c0-1.093,0.74-1.86,1.775-1.86s1.742,0.768,1.742,1.86c0,1.066-0.68,1.862-1.773,1.862
			C102.462,140.917,101.751,140.121,101.751,139.055z"/>
	</g>
</g>
</svg>
