<?xml version="1.0" encoding="iso-8859-1"?>
<!-- Generator: Adobe Illustrator 16.0.0, SVG Export Plug-In . SVG Version: 6.00 Build 0)  -->
<!DOCTYPE svg PUBLIC "-//W3C//DTD SVG 1.1//EN" "http://www.w3.org/Graphics/SVG/1.1/DTD/svg11.dtd">
<svg version="1.1" id="Layer_1" xmlns="http://www.w3.org/2000/svg" xmlns:xlink="http://www.w3.org/1999/xlink" x="0px" y="0px"
	 width="107.717px" height="107.717px" viewBox="-15.764 -19 107.717 107.717"
	 style="enable-background:new -15.764 -19 107.717 107.717;" xml:space="preserve">
<g>
	<g id="mic_x5F_6x8_1_">
		<path style="fill:#FFFFFF;" d="M38.095,35.359c-5.381,0-9.759-4.378-9.759-9.759V7.081c0-5.381,4.378-9.759,9.759-9.759
			s9.759,4.378,9.759,9.759V25.6C47.854,30.981,43.476,35.359,38.095,35.359z M38.095-1.678c-4.83,0-8.759,3.929-8.759,8.759V25.6
			c0,4.83,3.93,8.759,8.759,8.759c4.83,0,8.759-3.929,8.759-8.759V7.081C46.854,2.251,42.925-1.678,38.095-1.678z"/>
	</g>
	<path style="fill:#FFFFFF;" d="M57.112,72.396H19.076v-0.5c0-5.381,4.378-9.76,9.759-9.76h4.13v-8.811
		C19.526,50.855,9.817,39.261,9.817,25.6v-4.485c0-2.829,2.301-5.13,5.13-5.13c2.828,0,5.129,2.301,5.129,5.13V25.6
		c0,9.936,8.083,18.019,18.019,18.019c9.935,0,18.018-8.083,18.018-18.019v-4.485c0-2.829,2.302-5.13,5.131-5.13
		c2.828,0,5.129,2.301,5.129,5.13V25.6c0,13.662-9.709,25.256-23.148,27.727v8.811h4.13c5.381,0,9.759,4.379,9.759,9.76V72.396z
		 M20.09,71.396h36.008c-0.261-4.598-4.083-8.26-8.745-8.26h-5.13V52.484l0.417-0.07C55.812,50.189,65.372,38.912,65.372,25.6
		v-4.485c0-2.277-1.853-4.13-4.129-4.13c-2.277,0-4.131,1.853-4.131,4.13V25.6c0,10.487-8.531,19.019-19.018,19.019
		c-10.487,0-19.019-8.532-19.019-19.019v-4.485c0-2.277-1.853-4.13-4.129-4.13c-2.277,0-4.13,1.853-4.13,4.13V25.6
		c0,13.313,9.56,24.589,22.732,26.814l0.417,0.07v10.652h-5.13C24.173,63.137,20.35,66.799,20.09,71.396z"/>
</g>
<path style="fill:#E8634C;" d="M38.095,86.92c-28.706,0-52.061-23.354-52.061-52.061c0-28.706,23.354-52.061,52.061-52.061
	S90.155,6.153,90.155,34.859C90.155,63.565,66.801,86.92,38.095,86.92z M38.095-16.202c-28.155,0-51.061,22.906-51.061,51.061
	S9.94,85.92,38.095,85.92c28.155,0,51.061-22.906,51.061-51.061S66.25-16.202,38.095-16.202z"/>
</svg>
